<svg xmlns="http://www.w3.org/2000/svg" xmlns:xlink="http://www.w3.org/1999/xlink" xmlns:lucid="lucid" width="743.75" height="756.33"><g transform="translate(-319.25 -280)" lucid:page-tab-id="0_0"><path d="M0 0h1870.87v1322.83H0z" fill="#fff"/><path d="M440 958.83c0-3.3 2.7-6 6-6h588c3.3 0 6 2.7 6 6v28c0 3.32-2.7 6-6 6H446c-3.3 0-6-2.68-6-6z" stroke="#5e5e5e" stroke-width="3" fill="#fff"/><path d="M981.5 953.58c.4 0 .75.34.75.75v37c0 .42-.34.75-.75.75-.4 0-.75-.33-.75-.75v-37c0-.4.34-.75.75-.75zM921.5 953.58c.4 0 .75.34.75.75v37c0 .42-.34.75-.75.75-.4 0-.75-.33-.75-.75v-37c0-.4.34-.75.75-.75zM861.5 953.58c.4 0 .75.34.75.75v37c0 .42-.34.75-.75.75-.4 0-.75-.33-.75-.75v-37c0-.4.34-.75.75-.75zM801.5 953.58c.4 0 .75.34.75.75v37c0 .42-.34.75-.75.75-.4 0-.75-.33-.75-.75v-37c0-.4.34-.75.75-.75zM741.5 953.58c.4 0 .75.34.75.75v37c0 .42-.34.75-.75.75-.4 0-.75-.33-.75-.75v-37c0-.4.34-.75.75-.75zM681.5 953.58c.4 0 .75.34.75.75v37c0 .42-.34.75-.75.75-.4 0-.75-.33-.75-.75v-37c0-.4.34-.75.75-.75zM621.5 953.58c.4 0 .75.34.75.75v37c0 .42-.34.75-.75.75-.4 0-.75-.33-.75-.75v-37c0-.4.34-.75.75-.75zM561.5 953.58c.4 0 .75.34.75.75v37c0 .42-.34.75-.75.75-.4 0-.75-.33-.75-.75v-37c0-.4.34-.75.75-.75zM501.5 953.58c.4 0 .75.34.75.75v37c0 .42-.34.75-.75.75-.4 0-.75-.33-.75-.75v-37c0-.4.34-.75.75-.75z" stroke="#5e5e5e" stroke-width="1.5" fill="none"/><path d="M983 958.83c0-3.3 2.7-6 6-6h48c3.3 0 6 2.7 6 6v28c0 3.32-2.7 6-6 6h-48c-3.3 0-6-2.68-6-6z" stroke="#000" stroke-opacity="0" stroke-width="3" fill="#fff" fill-opacity="0"/><use xlink:href="#a" transform="matrix(1,0,0,1,988,957.833333) translate(18.787977430555557 22.50217013888889)"/><path d="M923 958.83c0-3.3 2.7-6 6-6h48c3.3 0 6 2.7 6 6v28c0 3.32-2.7 6-6 6h-48c-3.3 0-6-2.68-6-6z" stroke="#000" stroke-opacity="0" stroke-width="3" fill="#e3fae3"/><use xlink:href="#b" transform="matrix(1,0,0,1,928,957.833333) translate(18.787977430555557 22.50217013888889)"/><path d="M863 958.83c0-3.3 2.7-6 6-6h48c3.3 0 6 2.7 6 6v28c0 3.32-2.7 6-6 6h-48c-3.3 0-6-2.68-6-6z" stroke="#000" stroke-opacity="0" stroke-width="3" fill="#fff" fill-opacity="0"/><use xlink:href="#a" transform="matrix(1,0,0,1,868,957.833333) translate(18.787977430555557 22.50217013888889)"/><path d="M803 958.83c0-3.3 2.7-6 6-6h48c3.3 0 6 2.7 6 6v28c0 3.32-2.7 6-6 6h-48c-3.3 0-6-2.68-6-6z" stroke="#000" stroke-opacity="0" stroke-width="3" fill="#fff" fill-opacity="0"/><use xlink:href="#a" transform="matrix(1,0,0,1,808,957.833333) translate(18.787977430555557 22.50217013888889)"/><path d="M743 958.83c0-3.3 2.7-6 6-6h48c3.3 0 6 2.7 6 6v28c0 3.32-2.7 6-6 6h-48c-3.3 0-6-2.68-6-6z" stroke="#000" stroke-opacity="0" stroke-width="3" fill="#e3fae3"/><use xlink:href="#b" transform="matrix(1,0,0,1,748,957.833333) translate(18.787977430555557 22.50217013888889)"/><path d="M681.5 958.83c0-3.3 2.7-6 6-6h48c3.3 0 6 2.7 6 6v28c0 3.32-2.7 6-6 6h-48c-3.3 0-6-2.68-6-6z" stroke="#000" stroke-opacity="0" stroke-width="3" fill="#fff" fill-opacity="0"/><use xlink:href="#a" transform="matrix(1,0,0,1,686.5,957.833333) translate(18.787977430555557 22.50217013888889)"/><path d="M623 958.83c0-3.3 2.7-6 6-6h48c3.3 0 6 2.7 6 6v28c0 3.32-2.7 6-6 6h-48c-3.3 0-6-2.68-6-6z" stroke="#000" stroke-opacity="0" stroke-width="3" fill="#fff" fill-opacity="0"/><use xlink:href="#a" transform="matrix(1,0,0,1,628,957.833333) translate(18.787977430555557 22.50217013888889)"/><path d="M561.5 956.33c0-3.3 2.7-6 6-6h48c3.3 0 6 2.7 6 6v28c0 3.32-2.7 6-6 6h-48c-3.3 0-6-2.68-6-6z" stroke="#000" stroke-opacity="0" stroke-width="3" fill="#fff" fill-opacity="0"/><use xlink:href="#a" transform="matrix(1,0,0,1,566.5,955.333333) translate(18.787977430555557 22.50217013888889)"/><path d="M503 958.33c0-3.3 2.7-6 6-6h48c3.3 0 6 2.7 6 6v28c0 3.32-2.7 6-6 6h-48c-3.3 0-6-2.68-6-6z" stroke="#000" stroke-opacity="0" stroke-width="3" fill="#e3fae3"/><use xlink:href="#b" transform="matrix(1,0,0,1,508,957.333333) translate(18.787977430555557 22.50217013888889)"/><path d="M440 956.33c0-3.3 2.7-6 6-6h48c3.3 0 6 2.7 6 6v28c0 3.32-2.7 6-6 6h-48c-3.3 0-6-2.68-6-6z" stroke="#000" stroke-opacity="0" stroke-width="3" fill="#fff" fill-opacity="0"/><use xlink:href="#a" transform="matrix(1,0,0,1,445,955.333333) translate(18.787977430555557 22.50217013888889)"/><path d="M440 998.83c0-3.3 2.7-6 6-6h48c3.3 0 6 2.7 6 6v8c0 3.32-2.7 6-6 6h-48c-3.3 0-6-2.68-6-6z" stroke="#000" stroke-opacity="0" stroke-width="3" fill="#fff" fill-opacity="0"/><use xlink:href="#c" transform="matrix(1,0,0,1,445,997.833333) translate(20.65158420138889 14.439019097222218)"/><path d="M500 1000.33c0-3.3 2.7-6 6-6h48c3.3 0 6 2.7 6 6v8c0 3.32-2.7 6-6 6h-48c-3.3 0-6-2.68-6-6z" stroke="#000" stroke-opacity="0" stroke-width="3" fill="#fff" fill-opacity="0"/><use xlink:href="#d" transform="matrix(1,0,0,1,505,999.333333) translate(20.65158420138889 14.439019097222218)"/><path d="M560 1000.33c0-3.3 2.7-6 6-6h48c3.3 0 6 2.7 6 6v8c0 3.32-2.7 6-6 6h-48c-3.3 0-6-2.68-6-6z" stroke="#000" stroke-opacity="0" stroke-width="3" fill="#fff" fill-opacity="0"/><use xlink:href="#e" transform="matrix(1,0,0,1,565,999.333333) translate(20.65158420138889 14.439019097222218)"/><path d="M623 1000.33c0-3.3 2.7-6 6-6h48c3.3 0 6 2.7 6 6v8c0 3.32-2.7 6-6 6h-48c-3.3 0-6-2.68-6-6z" stroke="#000" stroke-opacity="0" stroke-width="3" fill="#fff" fill-opacity="0"/><use xlink:href="#f" transform="matrix(1,0,0,1,628,999.333333) translate(20.65158420138889 14.439019097222218)"/><path d="M680 1000.33c0-3.3 2.7-6 6-6h48c3.3 0 6 2.7 6 6v8c0 3.32-2.7 6-6 6h-48c-3.3 0-6-2.68-6-6z" stroke="#000" stroke-opacity="0" stroke-width="3" fill="#fff" fill-opacity="0"/><use xlink:href="#g" transform="matrix(1,0,0,1,685,999.333333) translate(20.65158420138889 14.439019097222218)"/><path d="M740 1000.33c0-3.3 2.7-6 6-6h48c3.3 0 6 2.7 6 6v8c0 3.32-2.7 6-6 6h-48c-3.3 0-6-2.68-6-6z" stroke="#000" stroke-opacity="0" stroke-width="3" fill="#fff" fill-opacity="0"/><use xlink:href="#h" transform="matrix(1,0,0,1,745,999.333333) translate(20.65158420138889 14.439019097222218)"/><path d="M800 1000.33c0-3.3 2.7-6 6-6h48c3.3 0 6 2.7 6 6v8c0 3.32-2.7 6-6 6h-48c-3.3 0-6-2.68-6-6z" stroke="#000" stroke-opacity="0" stroke-width="3" fill="#fff" fill-opacity="0"/><use xlink:href="#i" transform="matrix(1,0,0,1,805,999.333333) translate(20.65158420138889 14.439019097222218)"/><path d="M860 1000.33c0-3.3 2.7-6 6-6h48c3.3 0 6 2.7 6 6v8c0 3.32-2.7 6-6 6h-48c-3.3 0-6-2.68-6-6z" stroke="#000" stroke-opacity="0" stroke-width="3" fill="#fff" fill-opacity="0"/><use xlink:href="#j" transform="matrix(1,0,0,1,865,999.333333) translate(20.65158420138889 14.439019097222218)"/><path d="M920 1000.33c0-3.3 2.7-6 6-6h48c3.3 0 6 2.7 6 6v8c0 3.32-2.7 6-6 6h-48c-3.3 0-6-2.68-6-6z" stroke="#000" stroke-opacity="0" stroke-width="3" fill="#fff" fill-opacity="0"/><use xlink:href="#k" transform="matrix(1,0,0,1,925,999.333333) translate(20.65158420138889 14.439019097222218)"/><path d="M983 1000.33c0-3.3 2.7-6 6-6h48c3.3 0 6 2.7 6 6v8c0 3.32-2.7 6-6 6h-48c-3.3 0-6-2.68-6-6z" stroke="#000" stroke-opacity="0" stroke-width="3" fill="#fff" fill-opacity="0"/><use xlink:href="#l" transform="matrix(1,0,0,1,988,999.333333) translate(20.65158420138889 14.439019097222218)"/><path d="M580 306c0-3.3 2.7-6 6-6h228c3.3 0 6 2.7 6 6v48c0 3.3-2.7 6-6 6H586c-3.3 0-6-2.7-6-6z" stroke="#000" stroke-opacity="0" stroke-width="3" fill="#fff" fill-opacity="0"/><use xlink:href="#m" transform="matrix(1,0,0,1,585,305) translate(25.67708333333333 33.127170138888886)"/><path d="M479.25 426c0-3.3 2.7-6 6-6h488c3.3 0 6 2.7 6 6v308c0 3.3-2.7 6-6 6h-488c-3.3 0-6-2.7-6-6z" stroke="#5e5e5e" stroke-width="3" fill="#fff"/><path d="M501.5 486c0-3.3 2.7-6 6-6H634c3.3 0 6 2.7 6 6v68c0 3.3-2.7 6-6 6H507.5c-3.3 0-6-2.7-6-6z" stroke="#5e5e5e" stroke-width="3" fill="#fff"/><use xlink:href="#n" transform="matrix(1,0,0,1,513.5,492) translate(30.443793402777782 20.627170138888886)"/><use xlink:href="#o" transform="matrix(1,0,0,1,513.5,492) translate(2.617187500000014 46.495225694444436)"/><use xlink:href="#p" transform="matrix(1,0,0,1,513.5,492) translate(99.9587673611111 46.495225694444436)"/><path d="M660 486c0-3.3 2.7-6 6-6h126.5c3.3 0 6 2.7 6 6v68c0 3.3-2.7 6-6 6H666c-3.3 0-6-2.7-6-6z" stroke="#5e5e5e" stroke-width="3" fill="#fff"/><use xlink:href="#n" transform="matrix(1,0,0,1,672,492) translate(30.443793402777782 20.627170138888886)"/><use xlink:href="#o" transform="matrix(1,0,0,1,672,492) translate(2.617187500000014 46.495225694444436)"/><use xlink:href="#q" transform="matrix(1,0,0,1,672,492) translate(99.9587673611111 46.495225694444436)"/><path d="M818.5 486c0-3.3 2.7-6 6-6H951c3.3 0 6 2.7 6 6v68c0 3.3-2.7 6-6 6H824.5c-3.3 0-6-2.7-6-6z" stroke="#5e5e5e" stroke-width="3" fill="#fff"/><use xlink:href="#n" transform="matrix(1,0,0,1,830.5,492) translate(30.443793402777782 20.627170138888886)"/><use xlink:href="#o" transform="matrix(1,0,0,1,830.5,492) translate(2.617187500000014 46.495225694444436)"/><use xlink:href="#r" transform="matrix(1,0,0,1,830.5,492) translate(99.9587673611111 46.495225694444436)"/><path d="M570.75 562.5v12.66" stroke="#5e5e5e" stroke-width="2" fill="none"/><path d="M571.75 562.53h-2v-1.03h2z" stroke="#5e5e5e" stroke-width=".05" fill="#5e5e5e"/><path d="M570.75 590.43l-4.64-14.27h9.3z" stroke="#5e5e5e" stroke-width="2" fill="#5e5e5e"/><path d="M729.25 562.5v12.66" stroke="#5e5e5e" stroke-width="2" fill="none"/><path d="M730.25 562.53h-2v-1.03h2z" stroke="#5e5e5e" stroke-width=".05" fill="#5e5e5e"/><path d="M729.25 590.43l-4.64-14.27h9.3z" stroke="#5e5e5e" stroke-width="2" fill="#5e5e5e"/><path d="M887.75 562.5v13" stroke="#5e5e5e" stroke-width="2" fill="none"/><path d="M888.75 562.53h-2v-1.03h2z" stroke="#5e5e5e" stroke-width=".05" fill="#5e5e5e"/><path d="M887.75 590.76l-4.64-14.26h9.3z" stroke="#5e5e5e" stroke-width="2" fill="#5e5e5e"/><path d="M530.75 599.67c0-3.32 2.7-6 6-6h68c3.3 0 6 2.68 6 6v28c0 3.3-2.7 6-6 6h-68c-3.3 0-6-2.7-6-6z" stroke="#000" stroke-opacity="0" stroke-width="3" fill="#fff" fill-opacity="0"/><use xlink:href="#s" transform="matrix(1,0,0,1,535.75,598.6666666666666) translate(7.0458984375000036 22.314453124999996)"/><path d="M692.67 599.67c0-3.32 2.68-6 6-6h68c3.3 0 6 2.68 6 6v28c0 3.3-2.7 6-6 6h-68c-3.32 0-6-2.7-6-6z" stroke="#000" stroke-opacity="0" stroke-width="3" fill="#fff" fill-opacity="0"/><use xlink:href="#t" transform="matrix(1,0,0,1,697.6666666666665,598.6666666666666) translate(7.0458984375000036 22.314453124999996)"/><path d="M847.75 600c0-3.3 2.7-6 6-6h68c3.3 0 6 2.7 6 6v28c0 3.3-2.7 6-6 6h-68c-3.3 0-6-2.7-6-6z" stroke="#000" stroke-opacity="0" stroke-width="3" fill="#fff" fill-opacity="0"/><use xlink:href="#u" transform="matrix(1,0,0,1,852.75,599) translate(12.636718750000004 22.314453124999996)"/><path d="M500 674c0-3.3 2.7-6 6-6h148c3.3 0 6 2.7 6 6v29.67c0 3.3-2.7 6-6 6H506c-3.3 0-6-2.7-6-6z" stroke="#000" stroke-opacity="0" stroke-width="3" fill="#fff" fill-opacity="0"/><use xlink:href="#v" transform="matrix(1,0,0,1,505,673) translate(3.3637152777777857 24.62717013888889)"/><use xlink:href="#w" transform="matrix(1,0,0,1,505,673) translate(116.015625 24.62717013888889)"/><use xlink:href="#x" transform="matrix(1,0,0,1,505,673) translate(134.21223958333331 24.62717013888889)"/><path d="M658.5 675c0-3.3 2.7-6 6-6h148c3.3 0 6 2.7 6 6v29.67c0 3.3-2.7 6-6 6h-148c-3.3 0-6-2.7-6-6z" stroke="#000" stroke-opacity="0" stroke-width="3" fill="#fff" fill-opacity="0"/><use xlink:href="#y" transform="matrix(1,0,0,1,663.5,674) translate(3.3637152777777857 24.62717013888889)"/><use xlink:href="#w" transform="matrix(1,0,0,1,663.5,674) translate(116.015625 24.62717013888889)"/><use xlink:href="#z" transform="matrix(1,0,0,1,663.5,674) translate(134.21223958333331 24.62717013888889)"/><path d="M820 674c0-3.3 2.7-6 6-6h148c3.3 0 6 2.7 6 6v29.67c0 3.3-2.7 6-6 6H826c-3.3 0-6-2.7-6-6z" stroke="#000" stroke-opacity="0" stroke-width="3" fill="#fff" fill-opacity="0"/><use xlink:href="#A" transform="matrix(1,0,0,1,825,673) translate(9.575737847222229 24.62717013888889)"/><use xlink:href="#w" transform="matrix(1,0,0,1,825,673) translate(109.80360243055556 24.62717013888889)"/><use xlink:href="#B" transform="matrix(1,0,0,1,825,673) translate(128.00021701388889 24.62717013888889)"/><path d="M732.67 634.67v15.83" stroke="#5e5e5e" stroke-width="2" fill="none"/><path d="M733.67 634.7h-2v-1.03h2z" stroke="#5e5e5e" stroke-width=".05" fill="#5e5e5e"/><path d="M732.67 665.76l-4.64-14.26h9.27z" stroke="#5e5e5e" stroke-width="2" fill="#5e5e5e"/><path d="M570.75 634.67v14.83" stroke="#5e5e5e" stroke-width="2" fill="none"/><path d="M571.75 634.7h-2v-1.03h2z" stroke="#5e5e5e" stroke-width=".05" fill="#5e5e5e"/><path d="M570.75 664.76l-4.64-14.26h9.3z" stroke="#5e5e5e" stroke-width="2" fill="#5e5e5e"/><path d="M887.75 635v14.5" stroke="#5e5e5e" stroke-width="2" fill="none"/><path d="M888.75 635.03h-2V634h2z" stroke="#5e5e5e" stroke-width=".05" fill="#5e5e5e"/><path d="M887.75 664.76l-4.64-14.26h9.3z" stroke="#5e5e5e" stroke-width="2" fill="#5e5e5e"/><path d="M700 361v73c0 3.3-2.7 6-6 6H576.75c-3.3 0-6 2.7-6 6v14" stroke="#5e5e5e" stroke-width="2" fill="none"/><path d="M701 361.03h-2V360h2z" stroke="#5e5e5e" stroke-width=".05" fill="#5e5e5e"/><path d="M570.75 475.26L566.1 461h9.3z" stroke="#5e5e5e" stroke-width="2" fill="#5e5e5e"/><path d="M700 361v73c0 3.3 2.7 6 6 6h17.25c3.3 0 6 2.7 6 6v14" stroke="#5e5e5e" stroke-width="2" fill="none"/><path d="M701 361.03h-2V360h2z" stroke="#5e5e5e" stroke-width=".05" fill="#5e5e5e"/><path d="M729.25 475.26L724.6 461h9.3z" stroke="#5e5e5e" stroke-width="2" fill="#5e5e5e"/><path d="M700 361v73c0 3.3 2.7 6 6 6h175.75c3.3 0 6 2.7 6 6v14" stroke="#5e5e5e" stroke-width="2" fill="none"/><path d="M701 361.03h-2V360h2z" stroke="#5e5e5e" stroke-width=".05" fill="#5e5e5e"/><path d="M887.75 475.26L883.1 461h9.3z" stroke="#5e5e5e" stroke-width="2" fill="#5e5e5e"/><path d="M643 786c0-3.3 2.7-6 6-6h148c3.3 0 6 2.7 6 6v68c0 3.3-2.7 6-6 6H649c-3.3 0-6-2.7-6-6z" stroke="#5e5e5e" stroke-width="3" fill="#fff"/><use xlink:href="#C" transform="matrix(1,0,0,1,655,792) translate(18.47200520833333 20.62717013888889)"/><use xlink:href="#D" transform="matrix(1,0,0,1,655,792) translate(53.715060763888886 20.62717013888889)"/><use xlink:href="#E" transform="matrix(1,0,0,1,655,792) translate(35.822265625 46.49522569444444)"/><path d="M723 742.5V760" stroke="#5e5e5e" stroke-width="2" fill="none"/><path d="M724 742.53h-2v-1.03h2z" stroke="#5e5e5e" stroke-width=".05" fill="#5e5e5e"/><path d="M723 775.26L718.36 761h9.28z" stroke="#5e5e5e" stroke-width="2" fill="#5e5e5e"/><path d="M723 862.5v37.92c0 3.3-2.7 6-6 6H540c-3.3 0-6 2.68-6 6v20.4" stroke="#5e5e5e" stroke-width="2" fill="none"/><path d="M724 862.53h-2v-1.03h2z" stroke="#5e5e5e" stroke-width=".05" fill="#5e5e5e"/><path d="M534 948.1l-4.64-14.27h9.28z" stroke="#5e5e5e" stroke-width="2" fill="#5e5e5e"/><path d="M723 862.5v37.92c0 3.3 2.7 6 6 6h217.67c3.3 0 6 2.68 6 6v20.4" stroke="#5e5e5e" stroke-width="2" fill="none"/><path d="M724 862.53h-2v-1.03h2z" stroke="#5e5e5e" stroke-width=".05" fill="#5e5e5e"/><path d="M952.67 948.1l-4.64-14.27h9.27z" stroke="#5e5e5e" stroke-width="2" fill="#5e5e5e"/><path d="M723 862.5v37.92c0 3.3 2.7 6 6 6h39c3.3 0 6 2.68 6 6v20.4" stroke="#5e5e5e" stroke-width="2" fill="none"/><path d="M724 862.53h-2v-1.03h2z" stroke="#5e5e5e" stroke-width=".05" fill="#5e5e5e"/><path d="M774 948.1l-4.64-14.27h9.28z" stroke="#5e5e5e" stroke-width="2" fill="#5e5e5e"/><path d="M360 866c0-3.3 2.7-6 6-6h128c3.3 0 6 2.7 6 6v48c0 3.3-2.7 6-6 6H366c-3.3 0-6-2.7-6-6z" stroke="#000" stroke-opacity="0" stroke-width="3" fill="#fff" fill-opacity="0"/><g><use xlink:href="#F" transform="matrix(1,0,0,1,365,865) translate(9.262695312500014 31.064453124999996)"/><use xlink:href="#G" transform="matrix(1,0,0,1,365,865) translate(45.21972656250001 31.064453124999996)"/><use xlink:href="#H" transform="matrix(1,0,0,1,365,865) translate(82.5732421875 31.064453124999996)"/></g><path d="M339.25 426c0-3.3 2.7-6 6-6h128c3.3 0 6 2.7 6 6v48c0 3.3-2.7 6-6 6h-128c-3.3 0-6-2.7-6-6z" stroke="#000" stroke-opacity="0" stroke-width="3" fill="#fff" fill-opacity="0"/><g><use xlink:href="#I" transform="matrix(1,0,0,1,344.25,425) translate(17.669270833333336 33.127170138888886)"/></g><path d="M380 324.26c0-3.3 2.7-6 6-6h188c3.3 0 6 2.7 6 6V374c0 3.3-2.7 6-6 6H386c-3.3 0-6-2.7-6-6z" stroke="#000" stroke-opacity="0" stroke-width="3" fill="#fff" fill-opacity="0"/><g><use xlink:href="#J" transform="matrix(1,0,0,1,385,323.2638888888889) translate(16.45182291666667 20.62717013888889)"/><use xlink:href="#K" transform="matrix(1,0,0,1,385,323.2638888888889) translate(43.69791666666667 20.62717013888889)"/><use xlink:href="#L" transform="matrix(1,0,0,1,385,323.2638888888889) translate(88.03385416666667 20.62717013888889)"/><use xlink:href="#M" transform="matrix(1,0,0,1,385,323.2638888888889) translate(41.999782986111114 46.49522569444444)"/><use xlink:href="#N" transform="matrix(1,0,0,1,385,323.2638888888889) translate(110.51106770833333 46.49522569444444)"/></g><path d="M580 342.96" stroke="#5e5e5e" stroke-width="2" fill="none"/><path stroke="#5e5e5e" stroke-width=".05" fill="#5e5e5e"/><path stroke="#5e5e5e" stroke-width=".05" fill="#5e5e5e"/><defs><path fill="#333" d="M477 23C213 23 82-189 82-473c0-263 57-497 170-703s261-309 444-309c256 0 389 195 389 469 0 263-56 501-167 716S660 23 477 23zm17-113c119 0 214-99 286-296s107-420 107-669c0-213-70-319-211-319-119 0-215 99-287 297S281-658 281-414c0 216 71 324 213 324" id="O"/><use transform="matrix(0.010850694444444444,0,0,0.010850694444444444,0,0)" xlink:href="#O" id="a"/><path fill="#333" d="M872-1470L608-225C580-125 620-89 748-86h110L840 0H78l16-86c92 0 206 5 250-36 28-26 49-62 59-111 79-359 148-727 236-1076h-8c-86 85-151 140-192 170-82 59-203 73-199-67 137-26 365-175 501-264h131" id="P"/><use transform="matrix(0.010850694444444444,0,0,0.010850694444444444,0,0)" xlink:href="#P" id="b"/><use transform="matrix(0.007595486111111109,0,0,0.007595486111111109,0,0)" xlink:href="#O" id="c"/><use transform="matrix(0.007595486111111109,0,0,0.007595486111111109,0,0)" xlink:href="#P" id="d"/><path fill="#333" d="M655-1483c224 0 387 91 387 299 0 81-29 166-87 252S783-729 616-578L156-164h475c133-2 169-75 217-186h86L852 0H-35L8-166l481-434c127-115 217-214 268-298s77-176 77-276c0-121-71-206-189-206-157 0-254 103-291 309-97 0-145-44-145-131 0-76 41-142 123-198s190-83 323-83" id="Q"/><use transform="matrix(0.007595486111111109,0,0,0.007595486111111109,0,0)" xlink:href="#Q" id="e"/><path fill="#333" d="M739-438c0-173-112-269-288-267h-89l21-104h66c225 5 399-160 399-385 0-124-58-186-174-186-152 0-249 102-291 305-101 0-152-44-152-131 0-79 42-145 127-198s193-79 324-79c210 0 377 98 377 293 0 235-190 386-412 420 179 15 304 126 307 309 5 312-252 481-563 481C260 20 162-2 94-38-9-93-41-221 37-304c27-29 66-42 113-42-1 151 99 254 256 254 197 0 333-142 333-346" id="R"/><use transform="matrix(0.007595486111111109,0,0,0.007595486111111109,0,0)" xlink:href="#R" id="f"/><path fill="#333" d="M262 0l17-86c87 1 189 0 231-36 64-55 67-183 92-279H-29l19-84 839-977h197L823-516h254l-24 115H799c-13 74-34 156-43 233-8 68 92 88 194 82L932 0H262zm365-516c53-248 112-566 180-780-57 86-118 163-180 235L162-516h465" id="S"/><use transform="matrix(0.007595486111111109,0,0,0.007595486111111109,0,0)" xlink:href="#S" id="g"/><path fill="#333" d="M743-483c0-168-100-280-262-279-73 0-148 15-223 45l-70-14 220-731h684l-56 309h-86c8-115 29-145-88-145H465L330-842c66-21 131-32 196-32 254-4 430 132 430 376 0 313-254 518-581 518C136 20 16-48 16-184c0-85 51-127 154-127 5 146 79 219 223 219 227 1 350-156 350-391" id="T"/><use transform="matrix(0.007595486111111109,0,0,0.007595486111111109,0,0)" xlink:href="#T" id="h"/><path fill="#333" d="M508 20c-253-5-385-218-385-495 0-275 67-513 199-711s299-297 501-297c97 0 174 18 230 53s84 79 84 132c0 102-60 153-179 153 0-93-12-156-35-189s-58-50-104-50c-205 0-358 201-459 602 101-71 202-107 302-107 215 0 346 145 346 359 0 306-193 556-500 550zm12-112c187 0 285-215 285-426 0-177-61-266-184-266-91 0-186 39-283 118-19 109-29 198-29 267 0 205 70 307 211 307" id="U"/><use transform="matrix(0.007595486111111109,0,0,0.007595486111111109,0,0)" xlink:href="#U" id="i"/><path fill="#333" d="M221 0l758-1298H440c-75 0-122 35-141 104l-29 102h-86l88-370h916l-12 59L375 0H221" id="V"/><use transform="matrix(0.007595486111111109,0,0,0.007595486111111109,0,0)" xlink:href="#V" id="j"/><path fill="#333" d="M455 20C215 20 21-109 20-332c0-95 30-174 90-238s165-123 316-178c-134-96-201-209-201-339 0-270 200-396 490-396 210 0 375 106 377 299 0 88-26 164-80 228S866-834 735-780c173 101 260 223 260 366 0 295-232 434-540 434zm243-1400c-163 0-276 109-276 270 0 110 72 204 215 281 181-77 272-191 272-340 0-132-80-211-211-211zM481-80c183 0 322-105 320-285 0-71-23-131-68-181S617-646 520-694c-202 74-303 196-303 366 0 155 107 248 264 248" id="W"/><use transform="matrix(0.007595486111111109,0,0,0.007595486111111109,0,0)" xlink:href="#W" id="k"/><path fill="#333" d="M193-283c3 115 68 203 182 203 95 0 175-49 243-146s132-255 191-476c-89 93-194 139-313 139-207 0-346-136-346-340 0-313 238-580 540-580 236 0 375 159 375 404 0 263-63 512-188 747S579 20 358 20C167 20 72-41 72-164c0-69 49-121 121-119zm161-614c0 135 68 221 193 221 109 0 208-58 295-174 21-89 32-169 32-242 0-185-63-278-190-278-194 0-330 262-330 473" id="X"/><use transform="matrix(0.007595486111111109,0,0,0.007595486111111109,0,0)" xlink:href="#X" id="l"/><path fill="#333" d="M834-1118c189 0 260 159 260 370 0 183-58 358-172 522S662 20 483 20c-78 0-145-16-200-47-13 114-56 233-64 338-5 71 68 100 170 95l-18 86H-14L258-807c12-57 18-93 18-108 2-69-59-101-159-97l18-86h363l-49 273h10c99-195 224-293 375-293zM315-145c44 49 98 73 162 73 114 0 210-75 289-224s119-300 119-454c0-159-43-239-129-239-71 0-142 49-214 147S422-641 399-535" id="Y"/><path fill="#333" d="M582-1446c0 85-45 143-123 143-77 0-115-37-115-112 0-81 45-145 123-144 77 0 115 38 115 113zM317 20c-103 0-172-89-170-194 5-193 106-546 132-752 8-65-61-91-152-86l18-86h367L373-440c-21 98-31 174-31 227 0 69 23 104 68 104 39 0 88-18 147-53l37 60C499-21 407 20 317 20" id="Z"/><path fill="#333" d="M584-1446c0 85-45 143-123 143-77 0-115-37-115-112 0-81 45-145 123-144 77 0 115 38 115 113zM-287 475l19-94c113 32 201 11 256-77 39-61 70-158 98-288l188-888c30-100-24-148-145-140l18-86h367L279 16c-35 163-87 282-155 360-87 101-248 142-411 99" id="aa"/><path fill="#333" d="M934 20c-104 0-174-88-172-194 0-35 3-76 10-121h-16C682-173 616-90 558-47S433 18 360 18c-146 0-219-76-219-227 0-211 116-489 135-706 6-69-59-101-159-97l18-86h381L381-485c-27 124-41 206-41 247 0 83 33 125 100 125 70 0 145-50 226-151s134-209 159-324l107-510h198L989-440c-21 97-31 172-31 227-1 147 113 111 199 59l37 60c-87 76-173 114-260 114" id="ab"/><path fill="#333" d="M180-811c1-193 185-305 395-305 101 0 179 19 235 56s85 83 85 138c0 85-51 127-154 127 2-127-62-227-184-227-114 0-199 69-199 176 0 45 17 84 51 116s87 64 158 95c164 73 246 179 246 318-1 216-192 337-424 337C210 20 55-51 51-211c-2-83 51-135 129-135-2 160 80 268 234 268 147 0 221-63 221-190 0-49-16-90-47-124s-85-67-160-102c-98-46-164-94-198-144s-50-108-50-173" id="ac"/><path fill="#333" d="M1085-1462c414 0 693 255 693 659 0 185-41 339-124 461s-176 184-278 184c-119 0-199-62-241-186h-11c-65 124-157 186-276 186-193 0-311-146-311-350 0-145 47-277 141-396s221-179 381-179c76 0 140 20 192 61l82-43h49l-104 522c-9 47-14 92-14 137-1 80 46 141 125 140 67 0 129-50 183-152s81-232 81-391c0-342-234-549-580-549-212 0-395 86-548 256S295-715 295-451c0 394 226 636 610 635 188 0 361-57 520-170l48 74c-183 135-379 203-588 203-462 0-752-275-752-737 0-293 90-536 270-728s407-288 682-288zM727-479c0 125 48 213 156 213 115 0 188-85 221-256l78-416c-19-41-58-61-115-61-103 0-185 56-247 168s-93 229-93 352" id="ad"/><path fill="#333" d="M-72 225C-72 49 91-38 262-70c-105-42-129-167-58-248 26-30 79-63 154-102-95-45-143-125-143-242 0-115 44-220 131-314s201-142 344-142c87 0 158 22 211 65 65-97 138-145 221-145 69 0 103 31 103 94 0 85-40 127-121 127 0-49-19-74-57-74-27 0-60 16-101 47 30 43 45 95 45 158 0 115-42 221-129 316-99 109-229 157-405 139-97 39-146 82-146 129 0 34 35 54 105 61l196 21C824-157 930-68 930 88c0 285-240 404-555 404-298 0-447-89-447-267zm736-1249c-164 0-261 208-261 371 0 112 47 168 142 168 162 0 260-208 260-371 0-112-47-168-141-168zM383 391c205 0 369-69 369-246C752 56 689 1 561-6c-112-6-179-36-287 1C186 25 94 98 94 213c0 119 96 178 289 178" id="ae"/><path fill="#333" d="M1550 20c-115 1-186-85-186-204 0-159 117-538 117-680 0-81-32-121-95-121-70 0-142 45-217 135-157 189-182 347-226 647C928-94 920-27 920 0H725c17-212 74-498 117-673 20-83 30-146 30-191 0-81-31-121-94-121-76 0-154 51-234 155S412-624 391-524L281 0H90l172-823c35-124 4-196-147-189l18-86h379l-55 258h20c111-184 235-276 373-276 163 0 236 104 215 276h20c111-184 236-276 373-276 146 0 219 76 219 227 0 193-115 470-116 682 0 140 121 105 202 51l37 60c-87 77-170 116-250 116" id="af"/><path fill="#333" d="M352 20C165 20 88-147 88-354c0-188 59-362 176-523s261-241 434-241c93 0 173 25 240 74l90-52h66L954-440c-20 94-30 170-30 227 0 69 22 104 67 104 39 0 88-18 148-53l37 60C1078-21 982 20 887 20c-107 0-160-57-160-170 0-43 7-96 21-159h-13C637-90 509 20 352 20zm512-972c-31-49-83-74-155-74-117 0-214 74-293 222S297-503 297-346c0 158 43 237 129 237 68 0 136-53 214-151 147-186 163-434 224-692" id="ag"/><path fill="#333" d="M319 20c-102 0-169-87-169-194 0-65 13-172 45-322l167-786c39-129 0-195-155-188l18-86h387L375-440c-21 97-31 173-31 227 0 69 23 104 68 104 39 0 88-18 147-53l37 60C501-21 409 20 319 20" id="ah"/><path fill="#333" d="M352-141c0 90-49 157-135 157-85 0-127-42-127-125 0-89 49-158 135-157 85 0 127 42 127 125" id="ai"/><path fill="#333" d="M815-778c1-125-46-242-158-242-95 0-178 71-249 214S301-524 301-387c0 185 75 278 225 278 119 0 218-49 295-147 14 9 21 26 21 51 0 55-32 105-96 153S595 20 487 20C244 22 88-152 88-403c0-179 58-342 173-491s261-224 437-224c158 0 299 63 299 196 0 90-83 147-182 144" id="aj"/><path fill="#333" d="M481 20C230 20 88-147 88-403c0-184 56-349 168-495s260-220 442-220c250 0 389 163 389 424 0 182-56 347-167 494S662 20 481 20zm23-100c113 0 203-66 270-200s100-282 100-445c0-190-67-285-200-285-111 0-201 67-270 201S301-526 301-362c0 188 68 282 203 282" id="ak"/><g id="m"><use transform="matrix(0.010850694444444444,0,0,0.010850694444444444,0,0)" xlink:href="#Y"/><use transform="matrix(0.010850694444444444,0,0,0.010850694444444444,12.825520833333332,0)" xlink:href="#Z"/><use transform="matrix(0.010850694444444444,0,0,0.010850694444444444,19.58550347222222,0)" xlink:href="#aa"/><use transform="matrix(0.010850694444444444,0,0,0.010850694444444444,26.05251736111111,0)" xlink:href="#ab"/><use transform="matrix(0.010850694444444444,0,0,0.010850694444444444,39.36631944444444,0)" xlink:href="#ac"/><use transform="matrix(0.010850694444444444,0,0,0.010850694444444444,49.674479166666664,0)" xlink:href="#ad"/><use transform="matrix(0.010850694444444444,0,0,0.010850694444444444,70.13888888888889,0)" xlink:href="#ae"/><use transform="matrix(0.010850694444444444,0,0,0.010850694444444444,82.49782986111111,0)" xlink:href="#af"/><use transform="matrix(0.010850694444444444,0,0,0.010850694444444444,102.40885416666666,0)" xlink:href="#ag"/><use transform="matrix(0.010850694444444444,0,0,0.010850694444444444,115.2777777777778,0)" xlink:href="#Z"/><use transform="matrix(0.010850694444444444,0,0,0.010850694444444444,122.03776041666666,0)" xlink:href="#ah"/><use transform="matrix(0.010850694444444444,0,0,0.010850694444444444,128.79774305555557,0)" xlink:href="#ai"/><use transform="matrix(0.010850694444444444,0,0,0.010850694444444444,135.15625000000003,0)" xlink:href="#aj"/><use transform="matrix(0.010850694444444444,0,0,0.010850694444444444,145.97439236111114,0)" xlink:href="#ak"/><use transform="matrix(0.010850694444444444,0,0,0.010850694444444444,158.7348090277778,0)" xlink:href="#af"/></g><path fill="#333" d="M829 0l17-86c141 5 204-35 227-147l101-480H508c-36 182-83 358-111 545-9 61 72 87 174 82L553 0H-43l16-86c142 6 205-37 228-147l213-1004c35-108-30-142-166-139l18-86h596l-18 86c-141-6-203 36-226 147l-88 414h666c32-160 75-313 98-479 9-61-73-87-174-82l19-86h596l-19 86c-141-6-202 37-225 147L1278-225c-36 108 30 142 166 139l-19 86H829" id="al"/><path fill="#333" d="M942 20c-116 1-186-85-186-204 0-186 116-490 116-680 0-81-31-121-94-121-76 0-154 51-234 155S412-624 391-524L281 0H90l266-1266c13-60 19-96 19-108 2-69-60-100-160-96l18-86h377c-53 243-98 479-161 716h22c113-184 240-276 379-276 146 0 219 76 219 227 0 192-117 473-117 682 0 139 122 106 203 51l37 60c-89 77-173 116-250 116" id="am"/><g id="n"><use transform="matrix(0.010850694444444442,0,0,0.010850694444444442,0,0)" xlink:href="#al"/><use transform="matrix(0.010850694444444442,0,0,0.010850694444444442,17.621527777777775,0)" xlink:href="#ag"/><use transform="matrix(0.010850694444444442,0,0,0.010850694444444442,30.49045138888889,0)" xlink:href="#ac"/><use transform="matrix(0.010850694444444442,0,0,0.010850694444444442,40.79861111111111,0)" xlink:href="#am"/></g><path fill="#333" d="M-27-86c140 5 203-29 226-137l215-1014c35-108-30-142-166-139l18-86h1032l-65 358h-107c3-33 11-89 11-119 0-91-51-137-154-137H647L520-768h494l-21 100H500c-32 163-99 316-99 486 0 64 47 96 142 96h67L594 0H-43" id="an"/><path fill="#333" d="M942 20c-116 1-186-85-186-204 0-186 116-490 116-680 0-81-31-121-94-121-76 0-154 51-234 154S412-626 391-524L281 0H90l172-823c35-124 4-196-147-189l18-86h379l-55 258h20c111-184 235-276 373-276 146 0 219 76 219 227 0 192-117 473-117 682 0 139 122 106 203 51l37 60c-89 77-173 116-250 116" id="ao"/><path fill="#333" d="M616-154l35 76c-92 65-184 98-276 98-149 0-223-80-223-239 0-51 7-109 20-172l125-590H141l19-82c133 0 238-96 313-287h94l-53 252h248l-25 117H489L365-397c-17 79-25 137-25 176 0 75 36 112 109 112 55 0 111-15 167-45" id="ap"/><g id="o"><use transform="matrix(0.010850694444444442,0,0,0.010850694444444442,0,0)" xlink:href="#an"/><use transform="matrix(0.010850694444444442,0,0,0.010850694444444442,13.107638888888886,0)" xlink:href="#ab"/><use transform="matrix(0.010850694444444442,0,0,0.010850694444444442,26.42144097222221,0)" xlink:href="#ao"/><use transform="matrix(0.010850694444444442,0,0,0.010850694444444442,39.73524305555554,0)" xlink:href="#aj"/><use transform="matrix(0.010850694444444442,0,0,0.010850694444444442,50.55338541666665,0)" xlink:href="#ap"/><use transform="matrix(0.010850694444444442,0,0,0.010850694444444442,58.73480902777776,0)" xlink:href="#Z"/><use transform="matrix(0.010850694444444442,0,0,0.010850694444444442,65.49479166666664,0)" xlink:href="#ak"/><use transform="matrix(0.010850694444444442,0,0,0.010850694444444442,78.25520833333331,0)" xlink:href="#ao"/></g><use transform="matrix(0.010850694444444442,0,0,0.010850694444444442,0,0)" xlink:href="#P" id="p"/><use transform="matrix(0.010850694444444442,0,0,0.010850694444444442,0,0)" xlink:href="#Q" id="q"/><use transform="matrix(0.010850694444444442,0,0,0.010850694444444442,0,0)" xlink:href="#R" id="r"/><g id="s"><use transform="matrix(0.009765624999999998,0,0,0.009765624999999998,0,0)" xlink:href="#P"/><use transform="matrix(0.009765624999999998,0,0,0.009765624999999998,11.181640624999998,0)" xlink:href="#Q"/><use transform="matrix(0.009765624999999998,0,0,0.009765624999999998,22.363281249999996,0)" xlink:href="#R"/><use transform="matrix(0.009765624999999998,0,0,0.009765624999999998,33.54492187499999,0)" xlink:href="#S"/><use transform="matrix(0.009765624999999998,0,0,0.009765624999999998,44.72656249999999,0)" xlink:href="#T"/></g><g id="t"><use transform="matrix(0.009765624999999998,0,0,0.009765624999999998,0,0)" xlink:href="#Q"/><use transform="matrix(0.009765624999999998,0,0,0.009765624999999998,11.181640624999998,0)" xlink:href="#P"/><use transform="matrix(0.009765624999999998,0,0,0.009765624999999998,22.363281249999996,0)" xlink:href="#R"/><use transform="matrix(0.009765624999999998,0,0,0.009765624999999998,33.54492187499999,0)" xlink:href="#P"/><use transform="matrix(0.009765624999999998,0,0,0.009765624999999998,44.72656249999999,0)" xlink:href="#W"/></g><g id="u"><use transform="matrix(0.009765624999999998,0,0,0.009765624999999998,0,0)" xlink:href="#T"/><use transform="matrix(0.009765624999999998,0,0,0.009765624999999998,11.181640624999998,0)" xlink:href="#P"/><use transform="matrix(0.009765624999999998,0,0,0.009765624999999998,22.363281249999996,0)" xlink:href="#R"/><use transform="matrix(0.009765624999999998,0,0,0.009765624999999998,33.54492187499999,0)" xlink:href="#P"/></g><path fill="#333" d="M135-901c0-261 166-580 430-580 182 0 273 109 273 326 0 138-40 269-120 393S531-575 399-575c-181 0-264-132-264-326zm162 31c0 141 37 211 111 211s136-59 186-177 74-236 74-352c0-141-37-211-111-211s-135 59-185 177-75 235-75 352zM494 0H342l1028-1462h143zm546-309c0-261 166-580 430-580 182 0 273 109 273 326 0 138-41 269-121 393S1436 16 1305 16c-177 0-265-108-265-325zm162 30c0 141 37 211 111 211s135-58 185-176 75-235 75-352c0-141-37-211-111-211s-136 59-186 177-74 234-74 351" id="aq"/><g id="v"><use transform="matrix(0.010850694444444444,0,0,0.010850694444444444,0,0)" xlink:href="#P"/><use transform="matrix(0.010850694444444444,0,0,0.010850694444444444,12.42404513888889,0)" xlink:href="#Q"/><use transform="matrix(0.010850694444444444,0,0,0.010850694444444444,24.84809027777778,0)" xlink:href="#R"/><use transform="matrix(0.010850694444444444,0,0,0.010850694444444444,37.27213541666667,0)" xlink:href="#S"/><use transform="matrix(0.010850694444444444,0,0,0.010850694444444444,49.69618055555556,0)" xlink:href="#T"/><use transform="matrix(0.010850694444444444,0,0,0.010850694444444444,62.12022569444444,0)" xlink:href="#aq"/><use transform="matrix(0.010850694444444444,0,0,0.010850694444444444,82.03125,0)" xlink:href="#P"/><use transform="matrix(0.010850694444444444,0,0,0.010850694444444444,94.45529513888889,0)" xlink:href="#O"/></g><path fill="#333" d="M1028-993v121H150v-121h878zm0 403v121H150v-121h878" id="ar"/><use transform="matrix(0.010850694444444444,0,0,0.010850694444444444,0,0)" xlink:href="#ar" id="w"/><use transform="matrix(0.010850694444444444,0,0,0.010850694444444444,0,0)" xlink:href="#T" id="x"/><g id="y"><use transform="matrix(0.010850694444444444,0,0,0.010850694444444444,0,0)" xlink:href="#Q"/><use transform="matrix(0.010850694444444444,0,0,0.010850694444444444,12.42404513888889,0)" xlink:href="#P"/><use transform="matrix(0.010850694444444444,0,0,0.010850694444444444,24.84809027777778,0)" xlink:href="#R"/><use transform="matrix(0.010850694444444444,0,0,0.010850694444444444,37.27213541666667,0)" xlink:href="#P"/><use transform="matrix(0.010850694444444444,0,0,0.010850694444444444,49.69618055555556,0)" xlink:href="#W"/><use transform="matrix(0.010850694444444444,0,0,0.010850694444444444,62.12022569444444,0)" xlink:href="#aq"/><use transform="matrix(0.010850694444444444,0,0,0.010850694444444444,82.03125,0)" xlink:href="#P"/><use transform="matrix(0.010850694444444444,0,0,0.010850694444444444,94.45529513888889,0)" xlink:href="#O"/></g><use transform="matrix(0.010850694444444444,0,0,0.010850694444444444,0,0)" xlink:href="#W" id="z"/><g id="A"><use transform="matrix(0.010850694444444444,0,0,0.010850694444444444,0,0)" xlink:href="#T"/><use transform="matrix(0.010850694444444444,0,0,0.010850694444444444,12.42404513888889,0)" xlink:href="#P"/><use transform="matrix(0.010850694444444444,0,0,0.010850694444444444,24.84809027777778,0)" xlink:href="#R"/><use transform="matrix(0.010850694444444444,0,0,0.010850694444444444,37.27213541666667,0)" xlink:href="#P"/><use transform="matrix(0.010850694444444444,0,0,0.010850694444444444,49.69618055555556,0)" xlink:href="#aq"/><use transform="matrix(0.010850694444444444,0,0,0.010850694444444444,69.60720486111111,0)" xlink:href="#P"/><use transform="matrix(0.010850694444444444,0,0,0.010850694444444444,82.03125,0)" xlink:href="#O"/></g><use transform="matrix(0.010850694444444444,0,0,0.010850694444444444,0,0)" xlink:href="#P" id="B"/><path fill="#333" d="M1190-467C1190-141 951 0 600 0H-43l16-86c129 6 206-41 228-147l213-1004c35-108-30-142-166-139l18-86h531c319 0 479 102 479 307 0 202-111 329-334 381l-2 8c167 33 250 133 250 299zM530-817h158c243 0 365-104 365-311 0-155-94-232-283-232H647zM379-102h199c261 0 391-126 391-379 0-156-96-234-287-234H510" id="as"/><g id="C"><use transform="matrix(0.010850694444444444,0,0,0.010850694444444444,0,0)" xlink:href="#as"/><use transform="matrix(0.010850694444444444,0,0,0.010850694444444444,14.52907986111111,0)" xlink:href="#Z"/><use transform="matrix(0.010850694444444444,0,0,0.010850694444444444,21.2890625,0)" xlink:href="#ap"/></g><path fill="#333" d="M862-1462l-18 86c-141-6-203 36-226 147L406-225C368-116 434-84 571-86L553 0H-43l16-86c129 6 206-41 228-147l213-1004c35-108-30-142-166-139l18-86h596" id="at"/><path fill="#333" d="M352 20C165 20 88-147 88-354c0-188 59-362 176-523s261-241 434-241c77 0 144 16 201 49 21-127 48-190 57-305 6-68-59-100-159-96l18-86h377L954-440c-20 94-30 170-30 227 0 69 22 104 67 104 39 0 88-18 148-53l37 60C1078-21 982 20 887 20c-107 0-160-57-160-170 0-43 7-96 21-159h-13C637-90 509 20 352 20zm512-972c-31-49-83-74-155-74-117 0-214 74-293 222S297-503 297-346c0 158 43 237 129 237 68 0 136-53 214-151 147-186 163-434 224-692" id="au"/><path fill="#333" d="M698-1118c163 0 273 80 273 235 0 111-58 207-173 289-132 93-290 133-493 121-3 19-4 47-4 86 0 185 75 278 225 278 117 0 215-49 295-147 14 9 21 26 21 51 0 55-32 105-96 153S595 20 487 20C244 22 88-152 88-403c0-179 58-342 173-491s261-224 437-224zM324-567c228 11 434-109 436-316 0-91-40-137-119-137-66 0-128 41-185 124S355-703 324-567" id="av"/><path fill="#333" d="M-41 0l23-86c142-2 155-39 239-141l262-318-133-319c-53-108-40-147-174-148l17-86h272l156 414 272-414h262l-33 86c-145 2-158 44-239 148L668-588l141 355c50 107 40 147 174 147L967 0H692L526-451 219 0H-41" id="aw"/><path fill="#333" d="M512-983c0 92-48 158-135 158-85 0-127-42-127-125 0-89 49-159 135-158 85 0 127 42 127 125zM328-141c0 91-49 157-135 157-85 0-127-42-127-125 0-89 49-157 135-157 78 0 127 49 127 125" id="ax"/><g id="D"><use transform="matrix(0.010850694444444444,0,0,0.010850694444444444,0,0)" xlink:href="#at"/><use transform="matrix(0.010850694444444444,0,0,0.010850694444444444,8.159722222222221,0)" xlink:href="#ao"/><use transform="matrix(0.010850694444444444,0,0,0.010850694444444444,21.473524305555554,0)" xlink:href="#au"/><use transform="matrix(0.010850694444444444,0,0,0.010850694444444444,34.342447916666664,0)" xlink:href="#av"/><use transform="matrix(0.010850694444444444,0,0,0.010850694444444444,45.30164930555556,0)" xlink:href="#aw"/><use transform="matrix(0.010850694444444444,0,0,0.010850694444444444,57.43272569444444,0)" xlink:href="#ax"/></g><path fill="#333" d="M10 262l387-1818h457l-18 86c-86-1-188-1-228 36-27 26-48 61-59 111L258 37c-28 99 11 136 139 139h88l-18 86H10" id="ay"/><path fill="#333" d="M154-262c93 0 162 71 159 168-5 228-159 354-370 393l8-86c139-31 209-89 209-172 0-24-22-50-66-78-45-28-67-63-67-104-1-73 53-121 127-121" id="az"/><path fill="#333" d="M-96 262l18-86c86 1 188 1 227-37 27-26 48-61 58-110l291-1360c28-100-11-136-140-139h-88l19-86h456L358 262H-96" id="aA"/><g id="E"><use transform="matrix(0.010850694444444444,0,0,0.010850694444444444,0,0)" xlink:href="#ay"/><use transform="matrix(0.010850694444444444,0,0,0.010850694444444444,7.975260416666666,0)" xlink:href="#T"/><use transform="matrix(0.010850694444444444,0,0,0.010850694444444444,20.399305555555557,0)" xlink:href="#az"/><use transform="matrix(0.010850694444444444,0,0,0.010850694444444444,25.954861111111114,0)" xlink:href="#W"/><use transform="matrix(0.010850694444444444,0,0,0.010850694444444444,38.37890625,0)" xlink:href="#az"/><use transform="matrix(0.010850694444444444,0,0,0.010850694444444444,43.93446180555556,0)" xlink:href="#P"/><use transform="matrix(0.010850694444444444,0,0,0.010850694444444444,56.35850694444444,0)" xlink:href="#aA"/></g><path fill="#333" d="M748-1358c-134 0-226 74-226 211 0 183 149 220 273 293 101 60 178 120 229 186 86 111 96 292 34 426C977-67 791 20 535 20 316 20 142-29 60-160c-36-57-45-142-12-203 41-75 131-107 247-108 3 210 71 362 272 367 170 4 284-117 233-290-47-160-261-206-382-306-103-85-182-183-182-365 0-292 228-418 530-418 190 0 348 34 425 140 51 71 31 174-35 221-43 31-111 47-206 47-4-152-49-283-202-283" id="aB"/><path fill="#333" d="M399-461c-23 187 38 332 219 326 146-5 235-80 300-166 31 42 36 116 2 166C851-33 717 20 539 20 261 20 82-122 82-403c0-282 140-472 313-598 96-69 222-117 381-117 178 0 309 76 309 241 0 220-181 325-366 384-95 30-202 39-320 32zm365-284c46-83 41-255-74-250-86 4-137 72-176 135-46 74-83 181-100 282 168 3 290-58 350-167" id="aC"/><path fill="#333" d="M471-397c-29 103-44 250 82 250 68 0 117-28 160-54l47 78C670-47 567 17 403 20c-210 4-302-149-253-370 45-204 88-405 131-608H123l22-105c210-17 320-144 414-287h119l-53 252h247l-28 140H594" id="aD"/><g id="F"><use transform="matrix(0.009765624999999998,0,0,0.009765624999999998,0,0)" xlink:href="#aB"/><use transform="matrix(0.009765624999999998,0,0,0.009765624999999998,11.718749999999998,0)" xlink:href="#aC"/><use transform="matrix(0.009765624999999998,0,0,0.009765624999999998,22.421874999999996,0)" xlink:href="#aD"/></g><path fill="#333" d="M997 20c-146 1-243-71-243-210 0-230 104-411 104-635 0-65-20-117-86-117-103 0-149 99-196 174C446-562 418-265 350 0H43c94-455 203-901 285-1362 16-88-65-89-152-86l19-108h495c-49 228-94 459-153 677h12c86-132 186-234 399-239 198-4 262 156 220 350-32 147-64 293-91 440-14 79-20 186 64 185 56-1 79-22 121-47l49 69c-74 76-165 140-314 141" id="aE"/><g id="G"><use transform="matrix(0.009765624999999998,0,0,0.009765624999999998,0,0)" xlink:href="#aD"/><use transform="matrix(0.009765624999999998,0,0,0.009765624999999998,8.339843749999998,0)" xlink:href="#aE"/><use transform="matrix(0.009765624999999998,0,0,0.009765624999999998,21.455078124999996,0)" xlink:href="#aC"/></g><path fill="#333" d="M727-14C587 43 372 24 274-53L158 6H43c95-457 205-905 287-1368 16-90-68-88-156-86l19-108h497c-48 218-85 446-160 637-13 33-24 70-34 98h10c81-154 166-297 389-297 209 0 299 154 299 370 0 294-134 502-304 642-48 39-104 68-163 92zM391-168c44 60 170 76 243 26 137-94 209-276 239-472 21-136 28-322-99-340-137 20-191 145-244 250-78 154-93 355-139 536" id="aF"/><path fill="#333" d="M248-815c21-98 19-193-94-174h-37l18-109h486c-53 257-113 510-162 770-15 78-21 186 63 185 56-1 80-22 121-47l49 69C620-45 527 19 379 20c-147 2-244-71-244-210 0-224 69-423 113-625zm426-633c0 113-83 166-195 166-92 0-160-37-160-127 0-116 76-168 191-168 94 0 164 37 164 129" id="aG"/><path fill="#333" d="M254-379c4 153 50 272 203 277 132 4 242-92 183-216-53-111-224-136-326-209-83-59-154-129-154-266 0-242 210-320 463-325 122-2 219 18 291 58 49 29 83 69 83 134 0 121-106 155-235 156-4-122-38-229-158-234-118-5-202 88-158 203 66 101 234 129 332 203 80 60 142 129 142 262C920-66 702 20 422 20 260 20 128-16 62-110c-32-46-36-126-8-176 35-62 106-92 200-93" id="aH"/><g id="H"><use transform="matrix(0.009765624999999998,0,0,0.009765624999999998,0,0)" xlink:href="#aF"/><use transform="matrix(0.009765624999999998,0,0,0.009765624999999998,12.460937499999998,0)" xlink:href="#aG"/><use transform="matrix(0.009765624999999998,0,0,0.009765624999999998,19.541015624999996,0)" xlink:href="#aD"/><use transform="matrix(0.009765624999999998,0,0,0.009765624999999998,27.880859374999996,0)" xlink:href="#aH"/></g><path fill="#333" d="M1364-200c-19 94 83 91 172 91L1513 0H807l22-109c120 6 199-24 220-124l98-467H612c-35 175-75 345-108 522 4 76 96 67 176 69L657 0H-47l22-109c117 6 195-24 215-122 70-352 151-699 222-1053-4-77-94-68-174-70l22-108h707l-23 108c-120-5-200 25-221 125l-84 404h535c31-154 69-301 96-459-5-76-96-68-176-70l22-108h707l-23 108c-119-6-199 26-219 125-70 343-147 686-217 1029" id="aI"/><path fill="#333" d="M1292-102c-83 62-179 121-323 122-114 1-202-52-201-163 0-52 4-85 14-133h-14C684-124 605 20 375 20 110 20 42-260 100-522s202-466 433-562c150-62 364-28 481 37l108-49h109c-54 269-117 530-166 804-13 74 1 151 68 151 49 0 77-24 114-43zM885-930c-41-64-171-74-241-26-139 95-212 278-241 478-19 134-33 335 101 335 85 0 138-78 183-141 117-165 146-418 198-646" id="aJ"/><path fill="#333" d="M1030 20c-147 1-244-71-244-210 0-189 103-442 103-635 0-65-20-117-86-117-103 0-149 100-197 174C475-564 450-266 383 0H76c61-302 137-594 186-903 13-86-60-89-145-86l18-109h455l-23 219h13c86-132 186-235 399-239 197-4 262 155 221 350-31 147-63 292-90 440-13 78-21 187 64 185 56-1 79-22 120-47l49 69c-72 76-164 140-313 141" id="aK"/><path fill="#333" d="M326-428c-86-40-149-124-144-246 8-203 130-331 286-402 127-57 359-61 458 23 57-68 119-128 237-139 147-14 154 194 53 241-17 9-38 13-63 13 13-103-114-107-166-51 44 57 66 166 38 259-69 232-268 373-585 337-49 23-112 51-112 108 0 53 59 56 110 62 166 20 365 22 464 103 93 76 106 256 40 368-101 171-318 244-594 244-203 0-367-32-440-154-36-60-38-146 0-205C-33 42 82-7 209-31c-67-35-136-131-92-228 38-83 125-120 209-169zM125 217c-4 176 256 168 409 136 101-21 187-69 187-179C721 18 491 53 344 29c-91 13-164 55-202 121-12 21-17 44-17 67zm329-975c-30 108-23 256 97 246 140-12 183-146 209-274 21-104-1-212-105-205-125 8-172 127-201 233" id="aL"/><g id="I"><use transform="matrix(0.010850694444444444,0,0,0.010850694444444444,0,0)" xlink:href="#aI"/><use transform="matrix(0.010850694444444444,0,0,0.010850694444444444,18.196614583333332,0)" xlink:href="#aJ"/><use transform="matrix(0.010850694444444444,0,0,0.010850694444444444,32.975260416666664,0)" xlink:href="#aH"/><use transform="matrix(0.010850694444444444,0,0,0.010850694444444444,44.401041666666664,0)" xlink:href="#aE"/><use transform="matrix(0.010850694444444444,0,0,0.010850694444444444,58.97352430555555,0)" xlink:href="#aG"/><use transform="matrix(0.010850694444444444,0,0,0.010850694444444444,66.84027777777777,0)" xlink:href="#aK"/><use transform="matrix(0.010850694444444444,0,0,0.010850694444444444,81.77083333333333,0)" xlink:href="#aL"/></g><g id="J"><use transform="matrix(0.010850694444444444,0,0,0.010850694444444444,0,0)" xlink:href="#at"/><use transform="matrix(0.010850694444444444,0,0,0.010850694444444444,8.159722222222221,0)" xlink:href="#ao"/></g><g id="K"><use transform="matrix(0.010850694444444444,0,0,0.010850694444444444,0,0)" xlink:href="#ap"/><use transform="matrix(0.010850694444444444,0,0,0.010850694444444444,8.18142361111111,0)" xlink:href="#am"/><use transform="matrix(0.010850694444444444,0,0,0.010850694444444444,21.495225694444443,0)" xlink:href="#Z"/><use transform="matrix(0.010850694444444444,0,0,0.010850694444444444,28.255208333333332,0)" xlink:href="#ac"/></g><g id="L"><use transform="matrix(0.010850694444444444,0,0,0.010850694444444444,0,0)" xlink:href="#av"/><use transform="matrix(0.010850694444444444,0,0,0.010850694444444444,10.95920138888889,0)" xlink:href="#aw"/><use transform="matrix(0.010850694444444444,0,0,0.010850694444444444,22.40668402777778,0)" xlink:href="#ag"/><use transform="matrix(0.010850694444444444,0,0,0.010850694444444444,35.275607638888886,0)" xlink:href="#af"/><use transform="matrix(0.010850694444444444,0,0,0.010850694444444444,54.96961805555556,0)" xlink:href="#Y"/><use transform="matrix(0.010850694444444444,0,0,0.010850694444444444,67.79513888888889,0)" xlink:href="#ah"/><use transform="matrix(0.010850694444444444,0,0,0.010850694444444444,74.55512152777777,0)" xlink:href="#av"/></g><g id="M"><use transform="matrix(0.010850694444444444,0,0,0.010850694444444444,0,0)" xlink:href="#af"/><use transform="matrix(0.010850694444444444,0,0,0.010850694444444444,19.911024305555554,0)" xlink:href="#ar"/><use transform="matrix(0.010850694444444444,0,0,0.010850694444444444,32.33506944444444,0)" xlink:href="#P"/><use transform="matrix(0.010850694444444444,0,0,0.010850694444444444,44.75911458333333,0)" xlink:href="#O"/><use transform="matrix(0.010850694444444444,0,0,0.010850694444444444,57.18315972222221,0)" xlink:href="#az"/></g><path fill="#333" d="M694-786c101-87 151-152 151-193 0-21-30-31-91-31l18-86h453l-19 86c-79 0-190 63-329 191L692-649l187 405c53 115 122 172 208 172l-18 86C827 9 756-19 684-197L551-524 365-406 281 0H90l266-1266c13-60 19-96 19-108 2-69-60-100-160-96l18-86h377c-60 283-196 930-239 1050" id="aM"/><g id="N"><use transform="matrix(0.010850694444444444,0,0,0.010850694444444444,0,0)" xlink:href="#aM"/><use transform="matrix(0.010850694444444444,0,0,0.010850694444444444,12.641059027777777,0)" xlink:href="#ar"/><use transform="matrix(0.010850694444444444,0,0,0.010850694444444444,25.065104166666664,0)" xlink:href="#R"/></g></defs></g></svg>