<svg xmlns="http://www.w3.org/2000/svg" xmlns:xlink="http://www.w3.org/1999/xlink" xmlns:lucid="lucid" width="1052" height="600"><g transform="translate(-34 -40)" lucid:page-tab-id="0_0"><path d="M0 0h1870.87v1322.83H0z" fill="#fff"/><path d="M280 140c0 22.1-17.9 40-40 40s-40-17.9-40-40 17.9-40 40-40 40 17.9 40 40z" stroke="#5e5e5e" stroke-width="3" fill="#fff"/><use xlink:href="#a" transform="matrix(1,0,0,1,205,105) translate(0.8447265625000071 42.626953125)"/><use xlink:href="#b" transform="matrix(1,0,0,1,205,105) translate(57.9736328125 42.626953125)"/><path d="M180 300c0 22.1-17.9 40-40 40s-40-17.9-40-40 17.9-40 40-40 40 17.9 40 40z" stroke="#5e5e5e" stroke-width="3" fill="#fff"/><use xlink:href="#a" transform="matrix(1,0,0,1,105,265) translate(0.8447265625000071 42.626953125)"/><use xlink:href="#c" transform="matrix(1,0,0,1,105,265) translate(57.9736328125 42.626953125)"/><path d="M460 340c0 22.1-17.9 40-40 40s-40-17.9-40-40 17.9-40 40-40 40 17.9 40 40z" stroke="#5e5e5e" stroke-width="3" fill="#fff"/><use xlink:href="#a" transform="matrix(1,0,0,1,385,305) translate(0.8447265625000071 42.626953125)"/><use xlink:href="#d" transform="matrix(1,0,0,1,385,305) translate(57.9736328125 42.626953125)"/><path d="M280 420c0 22.1-17.9 40-40 40s-40-17.9-40-40 17.9-40 40-40 40 17.9 40 40z" stroke="#5e5e5e" stroke-width="3" fill="#fff"/><use xlink:href="#a" transform="matrix(1,0,0,1,205,385) translate(0.8447265625000071 42.626953125)"/><use xlink:href="#e" transform="matrix(1,0,0,1,205,385) translate(57.9736328125 42.626953125)"/><path d="M460 200c0 22.1-17.9 40-40 40s-40-17.9-40-40 17.9-40 40-40 40 17.9 40 40z" stroke="#5e5e5e" stroke-width="3" fill="#fff"/><use xlink:href="#a" transform="matrix(1,0,0,1,385,165) translate(0.8447265625000071 42.626953125)"/><use xlink:href="#f" transform="matrix(1,0,0,1,385,165) translate(57.9736328125 42.626953125)"/><path d="M240 200v134c0 3.3 2.7 6 6 6h114" stroke="#5e5e5e" stroke-width="2" fill="none"/><path d="M240 184.74l4.64 14.26h-9.28zM375.26 340L361 344.64v-9.28z" stroke="#5e5e5e" stroke-width="2" fill="#5e5e5e"/><path d="M180 420h-34c-3.3 0-6-2.7-6-6v-54" stroke="#5e5e5e" stroke-width="2" fill="none"/><path d="M195.26 420L181 424.64v-9.28zM140 344.74l4.64 14.26h-9.28z" stroke="#5e5e5e" stroke-width="2" fill="#5e5e5e"/><path d="M480 200h15.5c3.3 0 6 2.7 6 6v128c0 3.3-2.7 6-6 6H480" stroke="#5e5e5e" stroke-width="2" fill="none"/><path d="M464.74 200l14.26-4.64v9.28zM464.74 340l14.26-4.64v9.28z" stroke="#5e5e5e" stroke-width="2" fill="#5e5e5e"/><path d="M190 66c0-3.3 2.7-6 6-6h88c3.3 0 6 2.7 6 6v28c0 3.3-2.7 6-6 6h-88c-3.3 0-6-2.7-6-6z" stroke="#000" stroke-opacity="0" stroke-width="3" fill="#fff" fill-opacity="0"/><use xlink:href="#g" transform="matrix(1,0,0,1,195,65) translate(20.808376736111114 22.50217013888889)"/><path d="M180 140h-34c-3.3 0-6 2.7-6 6v94" stroke="#5e5e5e" stroke-width="2" fill="none"/><path d="M195.26 140L181 144.64v-9.28zM140 255.26L135.36 241h9.28z" stroke="#5e5e5e" stroke-width="2" fill="#5e5e5e"/><path d="M54 231c0-3.3 2.7-6 6-6h88c3.3 0 6 2.7 6 6v28c0 3.3-2.7 6-6 6H60c-3.3 0-6-2.7-6-6z" stroke="#000" stroke-opacity="0" stroke-width="3" fill="#fff" fill-opacity="0"/><use xlink:href="#h" transform="matrix(1,0,0,1,59,230) translate(20.808376736111114 22.50217013888889)"/><path d="M200 466c0-3.3 2.7-6 6-6h88c3.3 0 6 2.7 6 6v28c0 3.3-2.7 6-6 6h-88c-3.3 0-6-2.7-6-6z" stroke="#000" stroke-opacity="0" stroke-width="3" fill="#fff" fill-opacity="0"/><use xlink:href="#i" transform="matrix(1,0,0,1,205,465) translate(29.798177083333336 22.50217013888889)"/><path d="M360 386c0-3.3 2.7-6 6-6h88c3.3 0 6 2.7 6 6v28c0 3.3-2.7 6-6 6h-88c-3.3 0-6-2.7-6-6z" stroke="#000" stroke-opacity="0" stroke-width="3" fill="#fff" fill-opacity="0"/><use xlink:href="#j" transform="matrix(1,0,0,1,365,385) translate(20.808376736111114 22.50217013888889)"/><path d="M360 126c0-3.3 2.7-6 6-6h88c3.3 0 6 2.7 6 6v28c0 3.3-2.7 6-6 6h-88c-3.3 0-6-2.7-6-6z" stroke="#000" stroke-opacity="0" stroke-width="3" fill="#fff" fill-opacity="0"/><use xlink:href="#k" transform="matrix(1,0,0,1,365,125) translate(29.798177083333336 22.50217013888889)"/><path d="M886 140c0 22.1-17.9 40-40 40s-40-17.9-40-40 17.9-40 40-40 40 17.9 40 40z" stroke="#5e5e5e" stroke-width="3" fill="#fff"/><use xlink:href="#a" transform="matrix(1,0,0,1,811,105) translate(0.8447265625000071 42.626953125)"/><use xlink:href="#b" transform="matrix(1,0,0,1,811,105) translate(57.9736328125 42.626953125)"/><path d="M786 300c0 22.1-17.9 40-40 40s-40-17.9-40-40 17.9-40 40-40 40 17.9 40 40z" stroke="#5e5e5e" stroke-width="3" fill="#fff"/><use xlink:href="#a" transform="matrix(1,0,0,1,711,265) translate(0.8447265625000071 42.626953125)"/><use xlink:href="#c" transform="matrix(1,0,0,1,711,265) translate(57.9736328125 42.626953125)"/><path d="M1066 340c0 22.1-17.9 40-40 40s-40-17.9-40-40 17.9-40 40-40 40 17.9 40 40z" stroke="#5e5e5e" stroke-width="3" fill="#fff"/><use xlink:href="#a" transform="matrix(1,0,0,1,991,305) translate(0.8447265625000071 42.626953125)"/><use xlink:href="#d" transform="matrix(1,0,0,1,991,305) translate(57.9736328125 42.626953125)"/><path d="M886 420c0 22.1-17.9 40-40 40s-40-17.9-40-40 17.9-40 40-40 40 17.9 40 40z" stroke="#5e5e5e" stroke-width="3" fill="#fff"/><use xlink:href="#a" transform="matrix(1,0,0,1,811,385) translate(0.8447265625000071 42.626953125)"/><use xlink:href="#e" transform="matrix(1,0,0,1,811,385) translate(57.9736328125 42.626953125)"/><path d="M1066 200c0 22.1-17.9 40-40 40s-40-17.9-40-40 17.9-40 40-40 40 17.9 40 40z" stroke="#5e5e5e" stroke-width="3" fill="#fff"/><use xlink:href="#a" transform="matrix(1,0,0,1,991,165) translate(0.8447265625000071 42.626953125)"/><use xlink:href="#f" transform="matrix(1,0,0,1,991,165) translate(57.9736328125 42.626953125)"/><path d="M796 66c0-3.3 2.7-6 6-6h88c3.3 0 6 2.7 6 6v28c0 3.3-2.7 6-6 6h-88c-3.3 0-6-2.7-6-6z" stroke="#000" stroke-opacity="0" stroke-width="3" fill="#fff" fill-opacity="0"/><use xlink:href="#l" transform="matrix(1,0,0,1,801,65) translate(2.8287760416666714 22.50217013888889)"/><path d="M660 231c0-3.3 2.7-6 6-6h88c3.3 0 6 2.7 6 6v28c0 3.3-2.7 6-6 6h-88c-3.3 0-6-2.7-6-6z" stroke="#000" stroke-opacity="0" stroke-width="3" fill="#fff" fill-opacity="0"/><use xlink:href="#l" transform="matrix(1,0,0,1,665,230) translate(2.8287760416666714 22.50217013888889)"/><path d="M806 466c0-3.3 2.7-6 6-6h88c3.3 0 6 2.7 6 6v28c0 3.3-2.7 6-6 6h-88c-3.3 0-6-2.7-6-6z" stroke="#000" stroke-opacity="0" stroke-width="3" fill="#fff" fill-opacity="0"/><use xlink:href="#l" transform="matrix(1,0,0,1,811,465) translate(2.8287760416666714 22.50217013888889)"/><path d="M966 386c0-3.3 2.7-6 6-6h88c3.3 0 6 2.7 6 6v28c0 3.3-2.7 6-6 6h-88c-3.3 0-6-2.7-6-6z" stroke="#000" stroke-opacity="0" stroke-width="3" fill="#fff" fill-opacity="0"/><use xlink:href="#l" transform="matrix(1,0,0,1,971,385) translate(2.8287760416666714 22.50217013888889)"/><path d="M966 126c0-3.3 2.7-6 6-6h88c3.3 0 6 2.7 6 6v28c0 3.3-2.7 6-6 6h-88c-3.3 0-6-2.7-6-6z" stroke="#000" stroke-opacity="0" stroke-width="3" fill="#fff" fill-opacity="0"/><use xlink:href="#l" transform="matrix(1,0,0,1,971,125) translate(2.8287760416666714 22.50217013888889)"/><path d="M280 486c0-3.3 2.7-6 6-6h128c3.3 0 6 2.7 6 6v48.87c0 3.3-2.7 6-6 6H286c-3.3 0-6-2.7-6-6z" stroke="#000" stroke-opacity="0" stroke-width="3" fill="#fff" fill-opacity="0"/><use xlink:href="#m" transform="matrix(1,0,0,1,285,485) translate(20.528428819444443 33.377170138888886)"/><use xlink:href="#n" transform="matrix(1,0,0,1,285,485) translate(49.70594618055555 33.377170138888886)"/><use xlink:href="#o" transform="matrix(1,0,0,1,285,485) translate(101.29014756944444 33.377170138888886)"/><path d="M880 486.87c0-3.32 2.7-6 6-6h148c3.3 0 6 2.68 6 6v48.87c0 3.3-2.7 6-6 6H886c-3.3 0-6-2.7-6-6z" stroke="#000" stroke-opacity="0" stroke-width="3" fill="#fff" fill-opacity="0"/><use xlink:href="#m" transform="matrix(1,0,0,1,885,485.86805555555554) translate(12.331814236111114 33.377170138888886)"/><use xlink:href="#n" transform="matrix(1,0,0,1,885,485.86805555555554) translate(41.50933159722222 33.377170138888886)"/><use xlink:href="#p" transform="matrix(1,0,0,1,885,485.86805555555554) translate(93.09353298611111 33.377170138888886)"/><use xlink:href="#q" transform="matrix(1,0,0,1,885,485.86805555555554) translate(107.04752604166667 33.377170138888886)"/><use xlink:href="#r" transform="matrix(1,0,0,1,885,485.86805555555554) translate(125.244140625 33.377170138888886)"/><path d="M906 140h24c3.3 0 6 2.7 6 6v48c0 3.3 2.7 6 6 6h24" stroke="#5e5e5e" stroke-width="2" fill="none"/><path d="M890.74 140l14.26-4.64v9.28zM981.26 200L967 204.64v-9.28z" stroke="#5e5e5e" stroke-width="2" fill="#5e5e5e"/><path d="M846 200v160" stroke="#5e5e5e" stroke-width="2" fill="none"/><path d="M846 184.74l4.64 14.26h-9.28zM846 375.26L841.36 361h9.28z" stroke="#5e5e5e" stroke-width="2" fill="#5e5e5e"/><path d="M1026 260v14c0 3.3-2.7 6-6 6H896c-3.3 0-6 2.7-6 6v8c0 3.3-2.7 6-6 6h-78" stroke="#5e5e5e" stroke-width="2" fill="none"/><path d="M1026 244.74l4.64 14.26h-9.28zM790.74 300l14.26-4.64v9.28z" stroke="#5e5e5e" stroke-width="2" fill="#5e5e5e"/><path d="M966 340h-24c-3.3 0-6 2.7-6 6v68c0 3.3-2.7 6-6 6h-24" stroke="#5e5e5e" stroke-width="2" fill="none"/><path d="M981.26 340L967 344.64v-9.28zM890.74 420l14.26-4.64v9.28z" stroke="#5e5e5e" stroke-width="2" fill="#5e5e5e"/><path d="M500 566c0-3.3 2.7-6 6-6h228c3.3 0 6 2.7 6 6v48c0 3.3-2.7 6-6 6H506c-3.3 0-6-2.7-6-6z" stroke="#000" stroke-opacity="0" stroke-width="3" fill="#fff" fill-opacity="0"/><g><use xlink:href="#s" transform="matrix(1,0,0,1,505,565) translate(25.926649305555543 33.127170138888886)"/><use xlink:href="#t" transform="matrix(1,0,0,1,505,565) translate(107.68663194444443 33.127170138888886)"/></g><defs><path fill="#333" d="M1397-1284c-4-70-82-68-156-70l23-108h516l-23 108c-117-5-194 26-215 123L1282 0h-188L539-1159c-67 319-136 637-201 957-18 91 71 93 154 93L469 0H-47l22-109c117 6 195-24 215-122 70-352 151-699 222-1053-4-77-94-68-174-70l22-108h455l499 1050c60-291 126-578 183-872" id="u"/><path fill="#333" d="M516 20C237 16 82-130 82-410c0-277 125-470 294-593 94-69 218-118 378-115 274 4 428 150 428 430 0 275-123 466-288 590C800-28 677 22 516 20zM395-360c-1 143 38 233 158 233 139 0 195-124 241-232 47-111 74-248 76-395 2-138-39-227-155-227-135 0-192 120-238 225-49 110-81 245-82 396" id="v"/><path fill="#333" d="M885-930c-45-60-170-77-242-26-137 97-209 279-239 478-20 134-33 335 100 335 84 0 137-78 182-141 118-164 147-417 199-646zm73-344c28-97 20-194-94-174h-47l19-108h493c-85 406-173 807-256 1216-16 78-28 199 60 199 40 0 86-27 114-43l45 80c-82 64-178 124-323 124-117 0-201-46-201-163 0-51 6-89 14-133h-12C690-121 604 18 381 20 110 23 42-257 100-522c57-260 197-465 424-562 115-49 296-44 391 15 13-70 24-139 43-205" id="w"/><path fill="#333" d="M399-461c-23 187 38 332 219 326 146-5 235-80 300-166 31 42 36 116 2 166C851-33 717 20 539 20 261 20 82-122 82-403c0-282 140-472 313-598 96-69 222-117 381-117 178 0 309 76 309 241 0 220-181 325-366 384-95 30-202 39-320 32zm365-284c46-83 41-255-74-250-86 4-137 72-176 135-46 74-83 181-100 282 168 3 290-58 350-167" id="x"/><g id="a"><use transform="matrix(0.009765624999999998,0,0,0.009765624999999998,0,0)" xlink:href="#u"/><use transform="matrix(0.009765624999999998,0,0,0.009765624999999998,15.566406249999996,0)" xlink:href="#v"/><use transform="matrix(0.009765624999999998,0,0,0.009765624999999998,27.929687499999996,0)" xlink:href="#w"/><use transform="matrix(0.009765624999999998,0,0,0.009765624999999998,41.23046874999999,0)" xlink:href="#x"/></g><path fill="#333" d="M701-212c-30 132 128 98 249 103L928 0H82l22-109c88-2 187 9 239-29 29-21 50-55 60-104 76-341 140-695 226-1026h-8c-76 75-136 152-231 198-51 25-108 22-138-24-18-27-27-64-27-112 205-49 355-165 514-264h230c-89 419-175 840-268 1258" id="y"/><use transform="matrix(0.009765624999999998,0,0,0.009765624999999998,0,0)" xlink:href="#y" id="b"/><path fill="#333" d="M471-1010c-133-3-235-45-235-176 0-164 131-235 274-274 167-45 421-23 527 54 63 46 112 108 112 208 0 201-130 300-250 412-208 194-461 378-684 561h477c144 0 187-102 228-205h120L940 0H-29l43-211 478-403c116-99 200-186 277-298 80-116 125-444-75-444-168 0-207 176-223 346" id="z"/><use transform="matrix(0.009765624999999998,0,0,0.009765624999999998,0,0)" xlink:href="#z" id="c"/><path fill="#333" d="M223-401c3 165 71 276 234 276 178 0 263-134 266-321 3-165-117-248-289-246h-88l21-127c220 12 366-66 434-215 53-117 47-331-111-324-168 8-203 157-233 305-118-3-232-17-232-131 0-168 158-235 307-276 166-45 395-22 500 54 65 47 115 112 115 216 0 258-182 381-412 428 179 23 307 106 307 301 0 303-206 430-470 471C341 46 100 6 20-140c-41-76-24-167 38-214 40-30 94-47 165-47" id="A"/><use transform="matrix(0.009765624999999998,0,0,0.009765624999999998,0,0)" xlink:href="#A" id="d"/><path fill="#333" d="M598-516c56-253 101-515 174-752-174 272-387 503-584 752h410zm238 295c-20 108 66 117 170 112L983 0H264l21-109c99 3 186-1 226-65 31-49 41-140 58-207H0l29-127 784-954h287L897-516h213l-29 135H868c-10 54-22 104-32 160" id="B"/><use transform="matrix(0.009765624999999998,0,0,0.009765624999999998,0,0)" xlink:href="#B" id="e"/><path fill="#333" d="M211-383c5 152 63 260 223 260 212 0 295-151 295-369 0-165-86-259-248-262-87-2-150 20-211 45l-86-43 209-710h774l-59 372H983c2-25 6-74 6-98 0-44-39-50-100-51H477L356-856c62-17 124-35 213-33 274 5 465 113 465 383 0 265-157 413-363 486-77 27-165 40-263 40C199 20 20-26 20-219c0-111 76-162 191-164" id="C"/><use transform="matrix(0.009765624999999998,0,0,0.009765624999999998,0,0)" xlink:href="#C" id="f"/><path fill="#333" d="M872-1470L608-225C580-125 620-89 748-86h110L840 0H78l16-86c92 0 206 5 250-36 28-26 49-62 59-111 79-359 148-727 236-1076h-8c-86 85-151 140-192 170-82 59-203 73-199-67 137-26 365-175 501-264h131" id="D"/><path fill="#333" d="M154-262c93 0 162 71 159 168-5 228-159 354-370 393l8-86c139-31 209-89 209-172 0-24-22-50-66-78-45-28-67-63-67-104-1-73 53-121 127-121" id="E"/><path fill="#333" d="M655-1483c224 0 387 91 387 299 0 81-29 166-87 252S783-729 616-578L156-164h475c133-2 169-75 217-186h86L852 0H-35L8-166l481-434c127-115 217-214 268-298s77-176 77-276c0-121-71-206-189-206-157 0-254 103-291 309-97 0-145-44-145-131 0-76 41-142 123-198s190-83 323-83" id="F"/><path fill="#333" d="M739-438c0-173-112-269-288-267h-89l21-104h66c225 5 399-160 399-385 0-124-58-186-174-186-152 0-249 102-291 305-101 0-152-44-152-131 0-79 42-145 127-198s193-79 324-79c210 0 377 98 377 293 0 235-190 386-412 420 179 15 304 126 307 309 5 312-252 481-563 481C260 20 162-2 94-38-9-93-41-221 37-304c27-29 66-42 113-42-1 151 99 254 256 254 197 0 333-142 333-346" id="G"/><g id="g"><use transform="matrix(0.010850694444444444,0,0,0.010850694444444444,0,0)" xlink:href="#D"/><use transform="matrix(0.010850694444444444,0,0,0.010850694444444444,12.42404513888889,0)" xlink:href="#E"/><use transform="matrix(0.010850694444444444,0,0,0.010850694444444444,17.979600694444443,0)" xlink:href="#F"/><use transform="matrix(0.010850694444444444,0,0,0.010850694444444444,30.403645833333332,0)" xlink:href="#E"/><use transform="matrix(0.010850694444444444,0,0,0.010850694444444444,35.959201388888886,0)" xlink:href="#G"/></g><path fill="#333" d="M262 0l17-86c87 1 189 0 231-36 64-55 67-183 92-279H-29l19-84 839-977h197L823-516h254l-24 115H799c-13 74-34 156-43 233-8 68 92 88 194 82L932 0H262zm365-516c53-248 112-566 180-780-57 86-118 163-180 235L162-516h465" id="H"/><g id="h"><use transform="matrix(0.010850694444444444,0,0,0.010850694444444444,0,0)" xlink:href="#D"/><use transform="matrix(0.010850694444444444,0,0,0.010850694444444444,12.42404513888889,0)" xlink:href="#E"/><use transform="matrix(0.010850694444444444,0,0,0.010850694444444444,17.979600694444443,0)" xlink:href="#F"/><use transform="matrix(0.010850694444444444,0,0,0.010850694444444444,30.403645833333332,0)" xlink:href="#E"/><use transform="matrix(0.010850694444444444,0,0,0.010850694444444444,35.959201388888886,0)" xlink:href="#H"/></g><g id="i"><use transform="matrix(0.010850694444444444,0,0,0.010850694444444444,0,0)" xlink:href="#F"/><use transform="matrix(0.010850694444444444,0,0,0.010850694444444444,12.42404513888889,0)" xlink:href="#E"/><use transform="matrix(0.010850694444444444,0,0,0.010850694444444444,17.979600694444443,0)" xlink:href="#H"/></g><path fill="#333" d="M743-483c0-168-100-280-262-279-73 0-148 15-223 45l-70-14 220-731h684l-56 309h-86c8-115 29-145-88-145H465L330-842c66-21 131-32 196-32 254-4 430 132 430 376 0 313-254 518-581 518C136 20 16-48 16-184c0-85 51-127 154-127 5 146 79 219 223 219 227 1 350-156 350-391" id="I"/><g id="j"><use transform="matrix(0.010850694444444444,0,0,0.010850694444444444,0,0)" xlink:href="#D"/><use transform="matrix(0.010850694444444444,0,0,0.010850694444444444,12.42404513888889,0)" xlink:href="#E"/><use transform="matrix(0.010850694444444444,0,0,0.010850694444444444,17.979600694444443,0)" xlink:href="#G"/><use transform="matrix(0.010850694444444444,0,0,0.010850694444444444,30.403645833333332,0)" xlink:href="#E"/><use transform="matrix(0.010850694444444444,0,0,0.010850694444444444,35.959201388888886,0)" xlink:href="#I"/></g><g id="k"><use transform="matrix(0.010850694444444444,0,0,0.010850694444444444,0,0)" xlink:href="#G"/><use transform="matrix(0.010850694444444444,0,0,0.010850694444444444,12.42404513888889,0)" xlink:href="#E"/><use transform="matrix(0.010850694444444444,0,0,0.010850694444444444,17.979600694444443,0)" xlink:href="#I"/></g><g id="l"><use transform="matrix(0.010850694444444444,0,0,0.010850694444444444,0,0)" xlink:href="#D"/><use transform="matrix(0.010850694444444444,0,0,0.010850694444444444,12.42404513888889,0)" xlink:href="#E"/><use transform="matrix(0.010850694444444444,0,0,0.010850694444444444,17.979600694444443,0)" xlink:href="#F"/><use transform="matrix(0.010850694444444444,0,0,0.010850694444444444,30.403645833333332,0)" xlink:href="#E"/><use transform="matrix(0.010850694444444444,0,0,0.010850694444444444,35.959201388888886,0)" xlink:href="#G"/><use transform="matrix(0.010850694444444444,0,0,0.010850694444444444,48.38324652777778,0)" xlink:href="#E"/><use transform="matrix(0.010850694444444444,0,0,0.010850694444444444,53.93880208333333,0)" xlink:href="#H"/><use transform="matrix(0.010850694444444444,0,0,0.010850694444444444,66.36284722222221,0)" xlink:href="#E"/><use transform="matrix(0.010850694444444444,0,0,0.010850694444444444,71.91840277777777,0)" xlink:href="#I"/></g><path fill="#333" d="M408-489L285-274c-55 91-69 189 75 188h48L391 0h-506l17-86c150 1 160-42 229-160l713-1216h160l194 1267c13 91 44 112 148 109l-17 86H772l16-86c110 7 200-19 195-104-6-110-25-197-37-299H408zm524-103c-25-190-79-508-84-682-83 191-268 485-379 682h463" id="J"/><path fill="#333" d="M616-154l35 76c-92 65-184 98-276 98-149 0-223-80-223-239 0-51 7-109 20-172l125-590H141l19-82c133 0 238-96 313-287h94l-53 252h248l-25 117H489L365-397c-17 79-25 137-25 176 0 75 36 112 109 112 55 0 111-15 167-45" id="K"/><g id="m"><use transform="matrix(0.010850694444444444,0,0,0.010850694444444444,0,0)" xlink:href="#J"/><use transform="matrix(0.010850694444444444,0,0,0.010850694444444444,15.223524305555555,0)" xlink:href="#K"/></g><path fill="#333" d="M582-1446c0 85-45 143-123 143-77 0-115-37-115-112 0-81 45-145 123-144 77 0 115 38 115 113zM317 20c-103 0-172-89-170-194 5-193 106-546 132-752 8-65-61-91-152-86l18-86h367L373-440c-21 98-31 174-31 227 0 69 23 104 68 104 39 0 88-18 147-53l37 60C499-21 407 20 317 20" id="L"/><path fill="#333" d="M1550 20c-115 1-186-85-186-204 0-159 117-538 117-680 0-81-32-121-95-121-70 0-142 45-217 135-157 189-182 347-226 647C928-94 920-27 920 0H725c17-212 74-498 117-673 20-83 30-146 30-191 0-81-31-121-94-121-76 0-154 51-234 155S412-624 391-524L281 0H90l172-823c35-124 4-196-147-189l18-86h379l-55 258h20c111-184 235-276 373-276 163 0 236 104 215 276h20c111-184 236-276 373-276 146 0 219 76 219 227 0 193-115 470-116 682 0 140 121 105 202 51l37 60c-87 77-170 116-250 116" id="M"/><path fill="#333" d="M698-1118c163 0 273 80 273 235 0 111-58 207-173 289-132 93-290 133-493 121-3 19-4 47-4 86 0 185 75 278 225 278 117 0 215-49 295-147 14 9 21 26 21 51 0 55-32 105-96 153S595 20 487 20C244 22 88-152 88-403c0-179 58-342 173-491s261-224 437-224zM324-567c228 11 434-109 436-316 0-91-40-137-119-137-66 0-128 41-185 124S355-703 324-567" id="N"/><g id="n"><use transform="matrix(0.010850694444444444,0,0,0.010850694444444444,0,0)" xlink:href="#K"/><use transform="matrix(0.010850694444444444,0,0,0.010850694444444444,8.18142361111111,0)" xlink:href="#L"/><use transform="matrix(0.010850694444444444,0,0,0.010850694444444444,14.94140625,0)" xlink:href="#M"/><use transform="matrix(0.010850694444444444,0,0,0.010850694444444444,34.85243055555556,0)" xlink:href="#N"/></g><use transform="matrix(0.010850694444444444,0,0,0.010850694444444444,0,0)" xlink:href="#K" id="o"/><use transform="matrix(0.010850694444444444,0,0,0.010850694444444444,0,0)" xlink:href="#K" id="p"/><path fill="#333" d="M649-672v379H526v-379H150v-121h376v-378h123v378h379v121H649" id="O"/><use transform="matrix(0.010850694444444444,0,0,0.010850694444444444,0,0)" xlink:href="#O" id="q"/><use transform="matrix(0.010850694444444444,0,0,0.010850694444444444,0,0)" xlink:href="#D" id="r"/><path fill="#333" d="M1036-520c-4-77-94-68-174-70l23-108h682c-9 35-13 75-25 108-108-2-176 34-194 125l-78 391c-147 57-303 96-506 94-388-4-635-167-635-548 0-408 195-659 451-825 194-126 612-183 847-54 79 43 154 146 91 243-49 75-150 113-273 115-4-172-61-303-231-303-198 0-308 126-392 257-97 151-153 349-157 591-5 263 127 425 405 377 33-5 61-12 86-20 25-121 60-249 80-373" id="P"/><path fill="#333" d="M254-379c4 153 50 272 203 277 132 4 242-92 183-216-53-111-224-136-326-209-83-59-154-129-154-266 0-242 210-320 463-325 122-2 219 18 291 58 49 29 83 69 83 134 0 121-106 155-235 156-4-122-38-229-158-234-118-5-202 88-158 203 66 101 234 129 332 203 80 60 142 129 142 262C920-66 702 20 422 20 260 20 128-16 62-110c-32-46-36-126-8-176 35-62 106-92 200-93" id="Q"/><path fill="#333" d="M248-815c21-98 19-193-94-174h-37l18-109h486c-53 257-113 510-162 770-15 78-21 186 63 185 56-1 80-22 121-47l49 69C620-45 527 19 379 20c-147 2-244-71-244-210 0-224 69-423 113-625zm426-633c0 113-83 166-195 166-92 0-160-37-160-127 0-116 76-168 191-168 94 0 164 37 164 129" id="R"/><path fill="#333" d="M391-168c49 53 173 80 249 27 134-94 201-271 234-465 8-46 11-88 11-127 0-104-13-212-111-221-132 20-189 136-242 238-81 155-94 362-141 548zM334 72c-18 111-115 333 65 311h78l-18 109H-61C35 26 149-429 231-903c15-85-60-89-145-86l18-109h441l-53 273h14c84-146 164-292 389-293 265-1 338 265 281 530-57 264-194 473-422 572-116 50-304 47-404-11-3 34-11 67-16 99" id="S"/><g id="s"><use transform="matrix(0.010850694444444444,0,0,0.010850694444444444,0,0)" xlink:href="#P"/><use transform="matrix(0.010850694444444444,0,0,0.010850694444444444,17.686631944444443,0)" xlink:href="#v"/><use transform="matrix(0.010850694444444444,0,0,0.010850694444444444,31.423611111111104,0)" xlink:href="#Q"/><use transform="matrix(0.010850694444444444,0,0,0.010850694444444444,42.84939236111111,0)" xlink:href="#Q"/><use transform="matrix(0.010850694444444444,0,0,0.010850694444444444,54.27517361111111,0)" xlink:href="#R"/><use transform="matrix(0.010850694444444444,0,0,0.010850694444444444,62.14192708333333,0)" xlink:href="#S"/></g><path fill="#333" d="M1034-1057c0-189-80-297-280-284L610-678h86c238 0 338-143 338-379zm334-6c0 362-251 500-627 504H586c-27 128-59 250-82 381 7 87 126 64 217 69L698 0H-47l22-109c117 6 195-24 215-122 70-352 151-699 222-1053-4-77-94-68-174-70l22-108h586c300 5 522 107 522 399" id="T"/><path fill="#333" d="M899-748c-3-99-6-197-100-202-97 20-140 107-187 186C490-556 446-268 385 0H76c60-290 123-576 182-868 17-84-14-127-104-121h-37l18-109h453l-43 281h10c78-154 147-300 371-301 130 0 215 43 215 160 0 147-91 210-242 210" id="U"/><path fill="#333" d="M471-397c-29 103-44 250 82 250 68 0 117-28 160-54l47 78C670-47 567 17 403 20c-210 4-302-149-253-370 45-204 88-405 131-608H123l22-105c210-17 320-144 414-287h119l-53 252h247l-28 140H594" id="V"/><path fill="#333" d="M472-776c-86 200-163 650 149 641 147-4 224-81 286-168 37 37 41 119 7 171C846-29 711 20 535 20 258 20 82-124 82-403s133-471 302-597c93-69 215-120 372-118 178 2 325 52 325 217 0 127-112 169-250 172-1-106-23-202-85-245-89-63-180 25-217 86-20 33-39 71-57 112" id="W"/><path fill="#333" d="M426-328c-15 78-21 186 63 185 56-1 80-22 121-47l49 69C587-45 495 19 346 20c-147 1-243-71-244-210 0-59 11-140 33-244 63-310 141-612 193-928 15-88-65-89-152-86l19-108h495c-87 410-182 814-264 1228" id="X"/><g id="t"><use transform="matrix(0.010850694444444444,0,0,0.010850694444444444,0,0)" xlink:href="#T"/><use transform="matrix(0.010850694444444444,0,0,0.010850694444444444,14.735243055555555,0)" xlink:href="#U"/><use transform="matrix(0.010850694444444444,0,0,0.010850694444444444,26.7578125,0)" xlink:href="#v"/><use transform="matrix(0.010850694444444444,0,0,0.010850694444444444,40.494791666666664,0)" xlink:href="#V"/><use transform="matrix(0.010850694444444444,0,0,0.010850694444444444,49.31640625,0)" xlink:href="#v"/><use transform="matrix(0.010850694444444444,0,0,0.010850694444444444,63.053385416666664,0)" xlink:href="#W"/><use transform="matrix(0.010850694444444444,0,0,0.010850694444444444,74.78298611111111,0)" xlink:href="#v"/><use transform="matrix(0.010850694444444444,0,0,0.010850694444444444,88.51996527777779,0)" xlink:href="#X"/></g></defs></g></svg>