<svg xmlns="http://www.w3.org/2000/svg" xmlns:xlink="http://www.w3.org/1999/xlink" xmlns:lucid="lucid" width="1011.5" height="583.33"><g transform="translate(-180 -99.66666666666669)" lucid:page-tab-id="0_0"><path d="M0 0h1870.87v1322.83H0z" fill="#fff"/><path d="M200 306c0-3.3 2.7-6 6-6h188c3.3 0 6 2.7 6 6v65c0 3.3-2.7 6-6 6H206c-3.3 0-6-2.7-6-6z" stroke="#5e5e5e" stroke-width="3" fill="#fff"/><use xlink:href="#a" transform="matrix(1,0,0,1,205,305) translate(66.69753086419753 38.71527777777778)"/><path d="M560 294c0-3.3 2.7-6 6-6h188c3.3 0 6 2.7 6 6v88c0 3.3-2.7 6-6 6H566c-3.3 0-6-2.7-6-6z" stroke="#5e5e5e" stroke-width="3" fill="#fff"/><use xlink:href="#b" transform="matrix(1,0,0,1,572,300) translate(61.48765432098766 41.52777777777778)"/><path d="M1001.5 180.75c.4 0 .75.34.75.75v197c0 .4-.34.75-.75.75-.4 0-.75-.34-.75-.75v-197c0-.4.34-.75.75-.75zM1141.5 180.75c.4 0 .75.34.75.75v197c0 .4-.34.75-.75.75-.4 0-.75-.34-.75-.75v-197c0-.4.34-.75.75-.75z" stroke="#5e5e5e" stroke-width="1.5" fill="none"/><path d="M1000.75 181.5c0-.4.34-.75.75-.75h137c.4 0 .75.34.75.75 0 .4-.34.75-.75.75h-137c-.4 0-.75-.34-.75-.75zM1000.75 261.5c0-.4.34-.75.75-.75h137c.4 0 .75.34.75.75 0 .4-.34.75-.75.75h-137c-.4 0-.75-.34-.75-.75zM1003.75 221.5c0-.4.34-.75.75-.75h137c.4 0 .75.34.75.75 0 .4-.34.75-.75.75h-137c-.4 0-.75-.34-.75-.75zM1003.75 298.5c0-.4.34-.75.75-.75h137c.4 0 .75.34.75.75 0 .4-.34.75-.75.75h-137c-.4 0-.75-.34-.75-.75zM1000.75 378.5c0-.4.34-.75.75-.75h137c.4 0 .75.34.75.75 0 .4-.34.75-.75.75h-137c-.4 0-.75-.34-.75-.75z" stroke="#5e5e5e" stroke-width="1.5" fill="none"/><path d="M1023 189c0-3.3 2.7-6 6-6h88c3.3 0 6 2.7 6 6v28c0 3.3-2.7 6-6 6h-88c-3.3 0-6-2.7-6-6z" stroke="#000" stroke-opacity="0" stroke-width="3" fill="#fff" fill-opacity="0"/><use xlink:href="#c" transform="matrix(1,0,0,1,1028,188) translate(7.482638888888893 21.297743055555554)"/><path d="M1021.5 229c0-3.3 2.7-6 6-6h88c3.3 0 6 2.7 6 6v28c0 3.3-2.7 6-6 6h-88c-3.3 0-6-2.7-6-6z" stroke="#000" stroke-opacity="0" stroke-width="3" fill="#fff" fill-opacity="0"/><use xlink:href="#d" transform="matrix(1,0,0,1,1026.5,228) translate(8.149956597222221 21.297743055555554)"/><path d="M1023 269c0-3.3 2.7-6 6-6h88c3.3 0 6 2.7 6 6v28c0 3.3-2.7 6-6 6h-88c-3.3 0-6-2.7-6-6z" stroke="#000" stroke-opacity="0" stroke-width="3" fill="#fff" fill-opacity="0"/><use xlink:href="#e" transform="matrix(1,0,0,1,1028,268) translate(7.482638888888893 21.297743055555554)"/><path d="M1003 460.75c.4 0 .75.34.75.75v197c0 .4-.34.75-.75.75-.4 0-.75-.34-.75-.75v-197c0-.4.34-.75.75-.75zM1143 460.75c.4 0 .75.34.75.75v197c0 .4-.34.75-.75.75-.4 0-.75-.34-.75-.75v-197c0-.4.34-.75.75-.75z" stroke="#5e5e5e" stroke-width="1.5" fill="none"/><path d="M1002.25 461.5c0-.4.34-.75.75-.75h137c.4 0 .75.34.75.75 0 .4-.34.75-.75.75h-137c-.4 0-.75-.34-.75-.75zM900.75 541.5c0-.4.34-.75.75-.75H1140c.4 0 .75.34.75.75 0 .4-.34.75-.75.75H901.5c-.4 0-.75-.34-.75-.75zM900.75 501.5c0-.4.34-.75.75-.75H1143c.4 0 .75.34.75.75 0 .4-.34.75-.75.75H901.5c-.4 0-.75-.34-.75-.75zM900.75 581.5c0-.4.34-.75.75-.75H1143c.4 0 .75.34.75.75 0 .4-.34.75-.75.75H901.5c-.4 0-.75-.34-.75-.75zM900.75 658.5c0-.4.34-.75.75-.75H1140c.4 0 .75.34.75.75 0 .4-.34.75-.75.75H901.5c-.4 0-.75-.34-.75-.75z" stroke="#5e5e5e" stroke-width="1.5" fill="none"/><path d="M1024.5 469c0-3.3 2.7-6 6-6h88c3.3 0 6 2.7 6 6v28c0 3.3-2.7 6-6 6h-88c-3.3 0-6-2.7-6-6z" stroke="#000" stroke-opacity="0" stroke-width="3" fill="#fff" fill-opacity="0"/><use xlink:href="#f" transform="matrix(1,0,0,1,1029.5,468) translate(14.200303819444446 21.297743055555554)"/><use xlink:href="#g" transform="matrix(1,0,0,1,1029.5,468) translate(66.86957465277777 21.297743055555554)"/><path d="M901.5 463.75c.4 0 .75.34.75.75v197c0 .4-.34.75-.75.75-.4 0-.75-.34-.75-.75v-197c0-.4.34-.75.75-.75zM900.75 461.5c0-.4.34-.75.75-.75h107c.4 0 .75.34.75.75 0 .4-.34.75-.75.75h-107c-.4 0-.75-.34-.75-.75z" stroke="#5e5e5e" stroke-width="1.5" fill="none"/><path d="M1020 509c0-3.3 2.7-6 6-6h88c3.3 0 6 2.7 6 6v28c0 3.3-2.7 6-6 6h-88c-3.3 0-6-2.7-6-6z" stroke="#000" stroke-opacity="0" stroke-width="3" fill="#fff" fill-opacity="0"/><use xlink:href="#f" transform="matrix(1,0,0,1,1025,508) translate(14.200303819444446 21.297743055555554)"/><use xlink:href="#h" transform="matrix(1,0,0,1,1025,508) translate(66.86957465277777 21.297743055555554)"/><path d="M1020 546c0-3.3 2.7-6 6-6h88c3.3 0 6 2.7 6 6v28c0 3.3-2.7 6-6 6h-88c-3.3 0-6-2.7-6-6z" stroke="#000" stroke-opacity="0" stroke-width="3" fill="#fff" fill-opacity="0"/><use xlink:href="#f" transform="matrix(1,0,0,1,1025,545) translate(14.200303819444446 21.297743055555554)"/><use xlink:href="#i" transform="matrix(1,0,0,1,1025,545) translate(66.86957465277777 21.297743055555554)"/><path d="M912.25 549c0-3.3 2.7-6 6-6h68c3.3 0 6 2.7 6 6v28c0 3.3-2.7 6-6 6h-68c-3.3 0-6-2.7-6-6z" stroke="#000" stroke-opacity="0" stroke-width="3" fill="#fff" fill-opacity="0"/><use xlink:href="#j" transform="matrix(1,0,0,1,917.25,548) translate(12.940538194444446 21.297743055555554)"/><use xlink:href="#i" transform="matrix(1,0,0,1,917.25,548) translate(48.12934027777777 21.297743055555554)"/><path d="M915 466c0-3.3 2.7-6 6-6h68c3.3 0 6 2.7 6 6v28c0 3.3-2.7 6-6 6h-68c-3.3 0-6-2.7-6-6z" stroke="#000" stroke-opacity="0" stroke-width="3" fill="#fff" fill-opacity="0"/><use xlink:href="#j" transform="matrix(1,0,0,1,920,465) translate(12.940538194444446 21.297743055555554)"/><use xlink:href="#g" transform="matrix(1,0,0,1,920,465) translate(48.12934027777777 21.297743055555554)"/><path d="M915 513c0-3.3 2.7-6 6-6h68c3.3 0 6 2.7 6 6v14c0 3.3-2.7 6-6 6h-68c-3.3 0-6-2.7-6-6z" stroke="#000" stroke-opacity="0" stroke-width="3" fill="#fff" fill-opacity="0"/><use xlink:href="#j" transform="matrix(1,0,0,1,920,512) translate(12.940538194444446 19.422743055555554)"/><use xlink:href="#h" transform="matrix(1,0,0,1,920,512) translate(48.12934027777777 19.422743055555554)"/><path d="M402.5 338.5H540" stroke="#5e5e5e" stroke-width="2" fill="none"/><path d="M402.53 339.5h-1.03v-2h1.03z" stroke="#5e5e5e" stroke-width=".05" fill="#5e5e5e"/><path d="M555.26 338.5L541 343.14v-9.28z" stroke="#5e5e5e" stroke-width="2" fill="#5e5e5e"/><path d="M762.5 338H904c3.3 0 6-2.7 6-6v-41.93c0-3.32 2.7-6 6-6h65.5" stroke="#5e5e5e" stroke-width="2" fill="none"/><path d="M762.53 339h-1.03v-2h1.03z" stroke="#5e5e5e" stroke-width=".05" fill="#5e5e5e"/><path d="M996.76 284.07l-14.26 4.63v-9.27z" stroke="#5e5e5e" stroke-width="2" fill="#5e5e5e"/><path d="M660 390.5v166.44c0 3.32 2.7 6 6 6h215.5" stroke="#5e5e5e" stroke-width="2" fill="none"/><path d="M661 390.53h-2v-1.03h2z" stroke="#5e5e5e" stroke-width=".05" fill="#5e5e5e"/><path d="M896.76 562.94l-14.26 4.64v-9.27z" stroke="#5e5e5e" stroke-width="2" fill="#5e5e5e"/><path d="M971.5 125.67c0-3.32 2.7-6 6-6h188c3.3 0 6 2.68 6 6V177c0 3.3-2.7 6-6 6h-188c-3.3 0-6-2.7-6-6z" stroke="#000" stroke-opacity="0" stroke-width="3" fill="#fff" fill-opacity="0"/><use xlink:href="#k" transform="matrix(1,0,0,1,976.5,124.66666666666669) translate(7.191358024691368 17.77777777777778)"/><use xlink:href="#l" transform="matrix(1,0,0,1,976.5,124.66666666666669) translate(68.3641975308642 17.77777777777778)"/><use xlink:href="#m" transform="matrix(1,0,0,1,976.5,124.66666666666669) translate(142.2530864197531 17.77777777777778)"/><use xlink:href="#n" transform="matrix(1,0,0,1,976.5,124.66666666666669) translate(16.11111111111113 40.888888888888886)"/><path d="M774 307c0-3.3 2.7-6 6-6h123c3.3 0 6 2.7 6 6v36.5c0 3.3-2.7 6-6 6H780c-3.3 0-6-2.7-6-6z" stroke="#000" stroke-opacity="0" stroke-width="3" fill="#fff" fill-opacity="0"/><g><use xlink:href="#o" transform="matrix(1,0,0,1,779,306) translate(6.9722222222222285 23.3125)"/><use xlink:href="#p" transform="matrix(1,0,0,1,779,306) translate(81.41666666666666 23.3125)"/></g><path d="M420 294c0-3.3 2.7-6 6-6h108c3.3 0 6 2.7 6 6v48c0 3.3-2.7 6-6 6H426c-3.3 0-6-2.7-6-6z" stroke="#000" stroke-opacity="0" stroke-width="3" fill="#fff" fill-opacity="0"/><g><use xlink:href="#q" transform="matrix(1,0,0,1,425,293) translate(10.939670138888893 31.922743055555554)"/></g><path d="M660 526c0-3.3 2.7-6 6-6h123c3.3 0 6 2.7 6 6v36.5c0 3.3-2.7 6-6 6H666c-3.3 0-6-2.7-6-6z" stroke="#000" stroke-opacity="0" stroke-width="3" fill="#fff" fill-opacity="0"/><g><use xlink:href="#r" transform="matrix(1,0,0,1,665,525) translate(26.90375434027778 26.735243055555554)"/></g><defs><path fill="#333" d="M212-179c-10-28-35-45-73-45-59 0-87 40-87 99 0 60 29 101 89 101 43 0 62-24 78-52l27 14C228-24 195 4 139 4 59 4 22-46 18-125c-6-104 99-153 187-111 19 9 31 26 39 46" id="s"/><path fill="#333" d="M24 0v-261h32V0H24" id="t"/><path fill="#333" d="M24-231v-30h32v30H24zM24 0v-190h32V0H24" id="u"/><path fill="#333" d="M100-194c63 0 86 42 84 106H49c0 40 14 67 53 68 26 1 43-12 49-29l28 8c-11 28-37 45-77 45C44 4 14-33 15-96c1-61 26-98 85-98zm52 81c6-60-76-77-97-28-3 7-6 17-6 28h103" id="v"/><path fill="#333" d="M117-194c89-4 53 116 60 194h-32v-121c0-31-8-49-39-48C34-167 62-67 57 0H25l-1-190h30c1 10-1 24 2 32 11-22 29-35 61-36" id="w"/><path fill="#333" d="M59-47c-2 24 18 29 38 22v24C64 9 27 4 27-40v-127H5v-23h24l9-43h21v43h35v23H59v120" id="x"/><g id="a"><use transform="matrix(0.06172839506172839,0,0,0.06172839506172839,0,0)" xlink:href="#s"/><use transform="matrix(0.06172839506172839,0,0,0.06172839506172839,15.987654320987653,0)" xlink:href="#t"/><use transform="matrix(0.06172839506172839,0,0,0.06172839506172839,20.864197530864196,0)" xlink:href="#u"/><use transform="matrix(0.06172839506172839,0,0,0.06172839506172839,25.74074074074074,0)" xlink:href="#v"/><use transform="matrix(0.06172839506172839,0,0,0.06172839506172839,38.08641975308642,0)" xlink:href="#w"/><use transform="matrix(0.06172839506172839,0,0,0.06172839506172839,50.432098765432094,0)" xlink:href="#x"/></g><path fill="#333" d="M185-189c-5-48-123-54-124 2 14 75 158 14 163 119 3 78-121 87-175 55-17-10-28-26-33-46l33-7c5 56 141 63 141-1 0-78-155-14-162-118-5-82 145-84 179-34 5 7 8 16 11 25" id="y"/><path fill="#333" d="M100-194c62-1 85 37 85 99 1 63-27 99-86 99S16-35 15-95c0-66 28-99 85-99zM99-20c44 1 53-31 53-75 0-43-8-75-51-75s-53 32-53 75 10 74 51 75" id="z"/><path fill="#333" d="M114-163C36-179 61-72 57 0H25l-1-190h30c1 12-1 29 2 39 6-27 23-49 58-41v29" id="A"/><g id="b"><use transform="matrix(0.06172839506172839,0,0,0.06172839506172839,0,0)" xlink:href="#y"/><use transform="matrix(0.06172839506172839,0,0,0.06172839506172839,14.814814814814813,0)" xlink:href="#x"/><use transform="matrix(0.06172839506172839,0,0,0.06172839506172839,20.98765432098765,0)" xlink:href="#z"/><use transform="matrix(0.06172839506172839,0,0,0.06172839506172839,33.33333333333333,0)" xlink:href="#A"/><use transform="matrix(0.06172839506172839,0,0,0.06172839506172839,40.679012345679006,0)" xlink:href="#v"/></g><path fill="#333" d="M547-1186c-130 0-225 70-225 191 0 79 45 112 98 151 152 113 395 149 395 404C815-218 676-85 516-8 369 63 163 21 76-63c-31-30-39-48-17-87 22-38 50-91 95-104 30 12 47 53 74 79 39 37 88 81 167 79 133-3 222-68 267-160 40-82 19-195-32-250-130-141-427-153-427-422 0-173 118-275 251-330 89-37 218-46 308-4 41 18 78 39 110 64-6 52-56 89-84 124-14 18-25 15-47 9-45-58-97-121-194-121" id="B"/><path fill="#333" d="M579-646c37-99-17-228-128-174-115 56-180 180-224 308-12 36-18 73-21 108 139-55 237-96 323-171 27-24 42-49 50-71zm-61-283c157-36 268 72 226 228-42 154-187 215-329 287-57 29-127 57-208 87 12 102 51 186 115 233 18 12 37 18 55 18 144 0 224-74 319-145 13 5 26 29 31 41C613-85 528-4 380 33 225 72 123-22 88-142c-97-333 92-609 306-738 36-22 78-39 124-49" id="C"/><path fill="#333" d="M352-90c82 0 133-30 211-64l17 37C486-49 387 21 252 41 109 22 117-184 141-332l77-483H74l-15-31 101-59h72c14-82 21-160 75-199l101-72 28 25c-33 61-45 156-60 246h249l20 28c-32 41-83 79-127 107-20-47-87-43-156-45-27 202-72 388-83 604-3 66 23 121 73 121" id="D"/><path fill="#333" d="M705-1559c-237 186-366 514-420 887-53 360-5 748 164 942l-37 45C149 170 67-232 125-641c48-335 174-623 361-819 61-63 126-111 196-144" id="E"/><path fill="#333" d="M381-1520c56-7 59 46 59 103 0 319-86 611-127 910 104-80 231-172 328-252 29-25 49-44 57-59s4-26-12-32-45-9-90-8l-4-39c78-8 144-35 231-33 59 1 74 9 76 62-12 43-46 71-85 106-97 88-230 167-351 239 98 122 154 303 253 423 14 17 29 24 42 24 50-1 73-3 114-26l17 34C820-13 774 29 686 39c-67-7-102-68-136-121-67-105-119-244-182-350-19-32-37-55-55-69-19 135-42 269-48 409-1 30 1 51 5 65-46 23-104 45-149 68L86 10c60-405 140-825 188-1243 5-48 7-85 7-110 0-43-4-75-48-70-38 4-72 18-108 27l-14-39c84-36 173-82 270-95" id="F"/><path fill="#333" d="M182-1075c134-44 280-108 396-170l28 35L461-143c8 46 57 53 104 69 28 9 64 15 109 21l-8 53H63l7-53c99-14 180-25 241-67 10-7 14-16 15-23 38-287 82-569 114-859 8-70-81-48-142-42-29 3-63 11-103 20" id="G"/><path fill="#333" d="M135 0c0-62-38-94-108-84l-9-45c54-42 139-86 220-100 63 20 83 110 54 187-55 145-154 267-276 347l-34-35C84 162 135 72 135 0" id="H"/><path fill="#333" d="M754-797c0-58-100-42-142-26l-18-35c66-32 139-78 225-78 93 0 84 101 52 179C762-489 617-264 457-2c-29 15-65 29-95 43l-32-31c-34-256-71-522-131-755-11-43-24-82-72-82-37 0-65 15-98 24l-13-37c80-33 155-77 244-96 61 8 66 72 80 127 53 200 87 439 115 659 110-180 210-362 280-562 14-39 19-68 19-85" id="I"/><path fill="#333" d="M472-1224c111 414-3 912-170 1184C211 108 96 242-57 315l-25-45C154 87 288-228 340-598c51-365 5-762-164-961l37-45c132 70 215 216 259 380" id="J"/><g id="c"><use transform="matrix(0.010850694444444444,0,0,0.010850694444444444,0,0)" xlink:href="#B"/><use transform="matrix(0.010850694444444444,0,0,0.010850694444444444,9.754774305555555,0)" xlink:href="#C"/><use transform="matrix(0.010850694444444444,0,0,0.010850694444444444,18.489583333333332,0)" xlink:href="#D"/><use transform="matrix(0.010850694444444444,0,0,0.010850694444444444,25.31467013888889,0)" xlink:href="#E"/><use transform="matrix(0.010850694444444444,0,0,0.010850694444444444,31.86848958333333,0)" xlink:href="#F"/><use transform="matrix(0.00759548611111111,0,0,0.00759548611111111,41.623263888888886,3.398980034722222)" xlink:href="#G"/><use transform="matrix(0.010850694444444444,0,0,0.010850694444444444,47.87434895833333,0)" xlink:href="#H"/><use transform="matrix(0.010850694444444444,0,0,0.010850694444444444,52.32313368055555,0)" xlink:href="#I"/><use transform="matrix(0.00759548611111111,0,0,0.00759548611111111,62.22981770833333,3.398980034722222)" xlink:href="#G"/><use transform="matrix(0.010850694444444444,0,0,0.010850694444444444,68.48090277777777,0)" xlink:href="#J"/></g><path fill="#333" d="M541-1235c150 0 243 77 243 229 0 136-52 210-126 318-139 203-296 367-494 573h375c52-7 70-53 89-92 13-26 22-57 29-92l43 12L649 0H14L0-74c199-199 361-366 502-570 78-113 128-192 139-333 10-123-129-206-241-145-61 33-97 106-109 188-38 21-69 45-123 49l-21-30c30-138 139-234 257-289 45-20 91-31 137-31" id="K"/><g id="d"><use transform="matrix(0.010850694444444444,0,0,0.010850694444444444,0,0)" xlink:href="#B"/><use transform="matrix(0.010850694444444444,0,0,0.010850694444444444,9.754774305555555,0)" xlink:href="#C"/><use transform="matrix(0.010850694444444444,0,0,0.010850694444444444,18.489583333333332,0)" xlink:href="#D"/><use transform="matrix(0.010850694444444444,0,0,0.010850694444444444,25.31467013888889,0)" xlink:href="#E"/><use transform="matrix(0.010850694444444444,0,0,0.010850694444444444,31.86848958333333,0)" xlink:href="#F"/><use transform="matrix(0.00759548611111111,0,0,0.00759548611111111,41.623263888888886,3.398980034722222)" xlink:href="#K"/><use transform="matrix(0.00759548611111111,0,0,0.00759548611111111,47.87434895833333,3.398980034722222)" xlink:href="#H"/><use transform="matrix(0.010850694444444444,0,0,0.010850694444444444,50.98849826388888,0)" xlink:href="#I"/><use transform="matrix(0.00759548611111111,0,0,0.00759548611111111,60.895182291666664,3.398980034722222)" xlink:href="#K"/><use transform="matrix(0.010850694444444444,0,0,0.010850694444444444,67.14626736111111,0)" xlink:href="#J"/></g><path fill="#333" d="M496-1235c151 0 237 88 237 234 0 167-109 248-229 303 129 25 205 124 205 270C709-215 604-74 452-6c-96 43-225 55-321 2C86-29 38-66-12-119l39-67C97-127 151-69 274-72c192-5 287-138 287-329 0-141-75-222-217-222-16 0-23 4-41 7l-6-60c149-46 293-108 293-297 0-100-49-168-150-168-98 0-151 68-153 168-44 21-74 34-131 39l-21-31c29-118 130-196 235-243 41-18 83-27 126-27" id="L"/><g id="e"><use transform="matrix(0.010850694444444444,0,0,0.010850694444444444,0,0)" xlink:href="#B"/><use transform="matrix(0.010850694444444444,0,0,0.010850694444444444,9.754774305555555,0)" xlink:href="#C"/><use transform="matrix(0.010850694444444444,0,0,0.010850694444444444,18.489583333333332,0)" xlink:href="#D"/><use transform="matrix(0.010850694444444444,0,0,0.010850694444444444,25.31467013888889,0)" xlink:href="#E"/><use transform="matrix(0.010850694444444444,0,0,0.010850694444444444,31.86848958333333,0)" xlink:href="#F"/><use transform="matrix(0.00759548611111111,0,0,0.00759548611111111,41.623263888888886,3.398980034722222)" xlink:href="#L"/><use transform="matrix(0.010850694444444444,0,0,0.010850694444444444,47.87434895833333,0)" xlink:href="#H"/><use transform="matrix(0.010850694444444444,0,0,0.010850694444444444,52.32313368055555,0)" xlink:href="#I"/><use transform="matrix(0.00759548611111111,0,0,0.00759548611111111,62.22981770833333,3.398980034722222)" xlink:href="#L"/><use transform="matrix(0.010850694444444444,0,0,0.010850694444444444,68.48090277777777,0)" xlink:href="#J"/></g><path fill="#333" d="M1298-1217c-69 18-128 16-151 66L647-59c-25 53-90 75-151 90L256-1151c-14-47-54-56-117-66l6-43h398l-6 43c-48 3-82 10-102 20s-28 25-23 46l190 956 440-956c9-19 3-34-18-43s-56-16-104-23l6-43h379" id="M"/><path fill="#333" d="M661-760c-53-49-159-101-247-48-113 67-182 195-214 341-30 137-2 291 76 351 83 63 145-40 186-90 52-62 103-149 141-225 17-109 40-224 58-329zM774-76c46 0 73-10 115-28l12 36C815-15 765 25 678 41c-67-11-72-79-84-155-6-40-8-93-8-158C527-170 447-59 354 10c-84 62-182 13-228-48-67-88-94-277-54-422 66-239 224-400 465-468 89-26 161 15 213 52 30-23 66-43 102-60l20 35c-81 49-83 182-104 289-30 154-64 328-30 492 5 25 13 44 36 44" id="N"/><path fill="#333" d="M295-76c50 0 81-16 129-33l12 37C351-24 291 41 174 41c-49 0-78-56-72-119 38-425 141-836 172-1268 3-41-11-70-51-67-37 3-69 18-104 27l-15-39c84-35 172-77 269-95 45 2 64 29 61 82-29 447-174 858-174 1303 0 37 6 59 35 59" id="O"/><path fill="#333" d="M808-120c19 78 102 32 153 16l14 36C892-16 837 29 743 41c-69-16-80-95-89-179-5-43-3-96 2-159C583-170 503-46 374 16c-50 24-105 41-152 10-63-42-101-123-101-231 0-192 74-366 74-555 0-38-3-69-41-67-37 2-69 15-103 24l-12-37c84-35 170-78 266-96 47 2 49 31 49 84 0 202-80 388-80 590 0 64 6 110 20 139 25 50 64 55 111 23 117-80 193-207 269-347 15-103 45-201 45-313 0-37-1-69-37-67-34 2-64 14-94 24l-15-37c82-35 164-78 258-96 45 3 46 32 46 84 0 206-82 390-82 598 0 61 6 105 13 134" id="P"/><g id="f"><use transform="matrix(0.010850694444444444,0,0,0.010850694444444444,0,0)" xlink:href="#M"/><use transform="matrix(0.010850694444444444,0,0,0.010850694444444444,13.172743055555555,0)" xlink:href="#N"/><use transform="matrix(0.010850694444444444,0,0,0.010850694444444444,23.177083333333332,0)" xlink:href="#O"/><use transform="matrix(0.010850694444444444,0,0,0.010850694444444444,28.39626736111111,0)" xlink:href="#P"/><use transform="matrix(0.010850694444444444,0,0,0.010850694444444444,39.48567708333333,0)" xlink:href="#C"/></g><use transform="matrix(0.010850694444444444,0,0,0.010850694444444444,0,0)" xlink:href="#G" id="g"/><use transform="matrix(0.010850694444444444,0,0,0.010850694444444444,0,0)" xlink:href="#K" id="h"/><use transform="matrix(0.010850694444444444,0,0,0.010850694444444444,0,0)" xlink:href="#L" id="i"/><path fill="#333" d="M1077-111C1003-59 933 4 827 14c-55 5-73-30-96-65L365-637l-72 533c-2 8 8 18 29 30s52 22 94 31l-6 43H0l6-43c42-9 76-20 101-31s39-21 40-30l146-1051c1-8-8-18-29-30s-53-23-96-32l6-43h410l-6 43c-42 9-76 20-101 31s-40 22-41 31l-69 507 458-480c20-26 41-36 33-68-17-17-51-17-86-21l6-43h383l-6 43c-71 8-125 23-164 62L506-671l350 515c36 72 137 40 203 9" id="Q"/><path fill="#333" d="M811-936c96-8 94 88 63 164-94 239-205 440-333 690-110 215-221 423-416 540-83 51-219 61-295 8-32-22 9-71 22-96 13-26 38-56 61-69 41 27 76 43 143 43 54 0 106-26 158-78S320 139 376 44c-51-272-106-558-200-789-21-51-28-72-72-82-36 3-66 15-98 24l-12-37c79-33 150-77 237-96 60 11 66 74 86 127 71 194 127 423 172 644 92-183 187-372 258-573 19-53 17-103-42-106-21-2-52 6-91 23l-18-37c73-42 131-71 215-78" id="R"/><g id="j"><use transform="matrix(0.010850694444444444,0,0,0.010850694444444444,0,0)" xlink:href="#Q"/><use transform="matrix(0.010850694444444444,0,0,0.010850694444444444,11.957465277777777,0)" xlink:href="#C"/><use transform="matrix(0.010850694444444444,0,0,0.010850694444444444,20.692274305555554,0)" xlink:href="#R"/></g><path fill="#333" d="M275 0h-61l-44-196L126 0H64L0-248h53L97-49l45-199h58l43 199 44-199h52" id="S"/><path fill="#333" d="M135-150c-39-12-60 13-60 57V0H25l-1-190h47c2 13-1 29 3 40 6-28 27-53 61-41v41" id="T"/><path fill="#333" d="M25-224v-37h50v37H25zM25 0v-190h50V0H25" id="U"/><path fill="#333" d="M115-3C79 11 28 4 28-45v-112H4v-33h27l15-45h31v45h36v33H77v99c-1 23 16 31 38 25v30" id="V"/><path fill="#333" d="M185-48c-13 30-37 53-82 52C43 2 14-33 14-96s30-98 90-98c62 0 83 45 84 108H66c0 31 8 55 39 56 18 0 30-7 34-22zm-45-69c5-46-57-63-70-21-2 6-4 13-4 21h74" id="W"/><g id="k"><use transform="matrix(0.06172839506172839,0,0,0.06172839506172839,0,0)" xlink:href="#S"/><use transform="matrix(0.06172839506172839,0,0,0.06172839506172839,20.493827160493826,0)" xlink:href="#T"/><use transform="matrix(0.06172839506172839,0,0,0.06172839506172839,29.1358024691358,0)" xlink:href="#U"/><use transform="matrix(0.06172839506172839,0,0,0.06172839506172839,35.30864197530864,0)" xlink:href="#V"/><use transform="matrix(0.06172839506172839,0,0,0.06172839506172839,42.654320987654316,0)" xlink:href="#W"/></g><path fill="#333" d="M199 0l-22-63H83L61 0H9l90-248h61L250 0h-51zm-33-102l-36-108c-10 38-24 72-36 108h72" id="X"/><path fill="#333" d="M114-157C55-157 80-60 75 0H25v-261h50l-1 109c12-26 28-41 61-42 86-1 58 113 63 194h-50c-7-57 23-157-34-157" id="Y"/><path fill="#333" d="M133-34C117-15 103 5 69 4 32 3 11-16 11-54c-1-60 55-63 116-61 1-26-3-47-28-47-18 1-26 9-28 27l-52-2c7-38 36-58 82-57s74 22 75 68l1 82c-1 14 12 18 25 15v27c-30 8-71 5-69-32zm-48 3c29 0 43-24 42-57-32 0-66-3-65 30 0 17 8 27 23 27" id="Z"/><path fill="#333" d="M88-194c31-1 46 15 58 34l-1-101h50l1 261h-48c-2-10 0-23-3-31C134-8 116 4 84 4 32 4 16-41 15-95c0-56 19-97 73-99zm17 164c33 0 40-30 41-66 1-37-9-64-41-64s-38 30-39 65c0 43 13 65 39 65" id="aa"/><g id="l"><use transform="matrix(0.06172839506172839,0,0,0.06172839506172839,0,0)" xlink:href="#X"/><use transform="matrix(0.06172839506172839,0,0,0.06172839506172839,15.987654320987653,0)" xlink:href="#Y"/><use transform="matrix(0.06172839506172839,0,0,0.06172839506172839,29.50617283950617,0)" xlink:href="#W"/><use transform="matrix(0.06172839506172839,0,0,0.06172839506172839,41.85185185185185,0)" xlink:href="#Z"/><use transform="matrix(0.06172839506172839,0,0,0.06172839506172839,54.197530864197525,0)" xlink:href="#aa"/></g><path fill="#333" d="M24 0v-248h52v208h133V0H24" id="ab"/><path fill="#333" d="M110-194c64 0 96 36 96 99 0 64-35 99-97 99-61 0-95-36-95-99 0-62 34-99 96-99zm-1 164c35 0 45-28 45-65 0-40-10-65-43-65-34 0-45 26-45 65 0 36 10 65 43 65" id="ac"/><path fill="#333" d="M195-6C206 82 75 100 31 46c-4-6-6-13-8-21l49-6c3 16 16 24 34 25 40 0 42-37 40-79-11 22-30 35-61 35-53 0-70-43-70-97 0-56 18-96 73-97 30 0 46 14 59 34l2-30h47zm-90-29c32 0 41-27 41-63 0-35-9-62-40-62-32 0-39 29-40 63 0 36 9 62 39 62" id="ad"/><g id="m"><use transform="matrix(0.06172839506172839,0,0,0.06172839506172839,0,0)" xlink:href="#ab"/><use transform="matrix(0.06172839506172839,0,0,0.06172839506172839,13.518518518518517,0)" xlink:href="#ac"/><use transform="matrix(0.06172839506172839,0,0,0.06172839506172839,27.037037037037035,0)" xlink:href="#ad"/></g><path fill="#333" d="M0 4l72-265h28L28 4H0" id="ae"/><path fill="#333" d="M108 0H70L1-190h34L89-25l56-165h34" id="af"/><path fill="#333" d="M141-36C126-15 110 5 73 4 37 3 15-17 15-53c-1-64 63-63 125-63 3-35-9-54-41-54-24 1-41 7-42 31l-33-3c5-37 33-52 76-52 45 0 72 20 72 64v82c-1 20 7 32 28 27v20c-31 9-61-2-59-35zM48-53c0 20 12 33 32 33 41-3 63-29 60-74-43 2-92-5-92 41" id="ag"/><path fill="#333" d="M177-190C167-65 218 103 67 71c-23-6-38-20-44-43l32-5c15 47 100 32 89-28v-30C133-14 115 1 83 1 29 1 15-40 15-95c0-56 16-97 71-98 29-1 48 16 59 35 1-10 0-23 2-32h30zM94-22c36 0 50-32 50-73 0-42-14-75-50-75-39 0-46 34-46 75s6 73 46 73" id="ah"/><path fill="#333" d="M206 0h-36l-40-164L89 0H53L-1-190h32L70-26l43-164h34l41 164 42-164h31" id="ai"/><path fill="#333" d="M101-251c68 0 85 55 85 127S166 4 100 4C33 4 14-52 14-124c0-73 17-127 87-127zm-1 229c47 0 54-49 54-102s-4-102-53-102c-51 0-55 48-55 102 0 53 5 102 54 102" id="aj"/><path fill="#333" d="M27 0v-27h64v-190l-56 39v-29l58-41h29v221h61V0H27" id="ak"/><path fill="#333" d="M33 0v-38h34V0H33" id="al"/><g id="n"><use transform="matrix(0.049382716049382706,0,0,0.049382716049382706,0,0)" xlink:href="#ae"/><use transform="matrix(0.049382716049382706,0,0,0.049382716049382706,4.93827160493827,0)" xlink:href="#af"/><use transform="matrix(0.049382716049382706,0,0,0.049382716049382706,13.827160493827158,0)" xlink:href="#ag"/><use transform="matrix(0.049382716049382706,0,0,0.049382716049382706,23.7037037037037,0)" xlink:href="#A"/><use transform="matrix(0.049382716049382706,0,0,0.049382716049382706,29.58024691358024,0)" xlink:href="#ae"/><use transform="matrix(0.049382716049382706,0,0,0.049382716049382706,34.51851851851851,0)" xlink:href="#t"/><use transform="matrix(0.049382716049382706,0,0,0.049382716049382706,38.419753086419746,0)" xlink:href="#z"/><use transform="matrix(0.049382716049382706,0,0,0.049382716049382706,48.29629629629629,0)" xlink:href="#ah"/><use transform="matrix(0.049382716049382706,0,0,0.049382716049382706,58.17283950617284,0)" xlink:href="#ae"/><use transform="matrix(0.049382716049382706,0,0,0.049382716049382706,63.11111111111111,0)" xlink:href="#ai"/><use transform="matrix(0.049382716049382706,0,0,0.049382716049382706,75.90123456790123,0)" xlink:href="#ag"/><use transform="matrix(0.049382716049382706,0,0,0.049382716049382706,85.77777777777777,0)" xlink:href="#t"/><use transform="matrix(0.049382716049382706,0,0,0.049382716049382706,89.679012345679,0)" xlink:href="#aj"/><use transform="matrix(0.049382716049382706,0,0,0.049382716049382706,99.55555555555554,0)" xlink:href="#aj"/><use transform="matrix(0.049382716049382706,0,0,0.049382716049382706,109.43209876543207,0)" xlink:href="#aj"/><use transform="matrix(0.049382716049382706,0,0,0.049382716049382706,119.30864197530865,0)" xlink:href="#ak"/><use transform="matrix(0.049382716049382706,0,0,0.049382716049382706,129.18518518518516,0)" xlink:href="#al"/><use transform="matrix(0.049382716049382706,0,0,0.049382716049382706,134.12345679012344,0)" xlink:href="#t"/><use transform="matrix(0.049382716049382706,0,0,0.049382716049382706,138.02469135802468,0)" xlink:href="#z"/><use transform="matrix(0.049382716049382706,0,0,0.049382716049382706,147.9012345679012,0)" xlink:href="#ah"/></g><path fill="#333" d="M205 0l-28-72H64L36 0H1l101-248h38L239 0h-34zm-38-99l-47-123c-12 45-31 82-46 123h93" id="am"/><path fill="#333" d="M115-194c55 1 70 41 70 98S169 2 115 4C84 4 66-9 55-30l1 105H24l-1-265h31l2 30c10-21 28-34 59-34zm-8 174c40 0 45-34 45-75s-6-73-45-74c-42 0-51 32-51 76 0 43 10 73 51 73" id="an"/><path fill="#333" d="M85-194c31 0 48 13 60 33l-1-100h32l1 261h-30c-2-10 0-23-3-31C134-8 116 4 85 4 32 4 16-35 15-94c0-66 23-100 70-100zm9 24c-40 0-46 34-46 75 0 40 6 74 45 74 42 0 51-32 51-76 0-42-9-74-50-73" id="ao"/><g id="o"><use transform="matrix(0.055555555555555546,0,0,0.055555555555555546,0,0)" xlink:href="#am"/><use transform="matrix(0.055555555555555546,0,0,0.055555555555555546,13.33333333333333,0)" xlink:href="#an"/><use transform="matrix(0.055555555555555546,0,0,0.055555555555555546,24.44444444444444,0)" xlink:href="#an"/><use transform="matrix(0.055555555555555546,0,0,0.055555555555555546,35.55555555555555,0)" xlink:href="#v"/><use transform="matrix(0.055555555555555546,0,0,0.055555555555555546,46.66666666666666,0)" xlink:href="#w"/><use transform="matrix(0.055555555555555546,0,0,0.055555555555555546,57.777777777777764,0)" xlink:href="#ao"/></g><path fill="#333" d="M179-190L93 31C79 59 56 82 12 73V49c39 6 53-20 64-50L1-190h34L92-34l54-156h33" id="ap"/><g id="p"><use transform="matrix(0.055555555555555546,0,0,0.055555555555555546,0,0)" xlink:href="#z"/><use transform="matrix(0.055555555555555546,0,0,0.055555555555555546,11.111111111111109,0)" xlink:href="#w"/><use transform="matrix(0.055555555555555546,0,0,0.055555555555555546,22.222222222222218,0)" xlink:href="#t"/><use transform="matrix(0.055555555555555546,0,0,0.055555555555555546,26.611111111111107,0)" xlink:href="#ap"/></g><g id="q"><use transform="matrix(0.010850694444444444,0,0,0.010850694444444444,0,0)" xlink:href="#B"/><use transform="matrix(0.010850694444444444,0,0,0.010850694444444444,9.754774305555555,0)" xlink:href="#N"/><use transform="matrix(0.010850694444444444,0,0,0.010850694444444444,19.759114583333332,0)" xlink:href="#I"/><use transform="matrix(0.010850694444444444,0,0,0.010850694444444444,29.665798611111104,0)" xlink:href="#C"/><use transform="matrix(0.010850694444444444,0,0,0.010850694444444444,38.400607638888886,0)" xlink:href="#E"/><use transform="matrix(0.010850694444444444,0,0,0.010850694444444444,44.95442708333333,0)" xlink:href="#F"/><use transform="matrix(0.00759548611111111,0,0,0.00759548611111111,54.709201388888886,3.398980034722222)" xlink:href="#L"/><use transform="matrix(0.010850694444444444,0,0,0.010850694444444444,60.96028645833333,0)" xlink:href="#H"/><use transform="matrix(0.010850694444444444,0,0,0.010850694444444444,65.40907118055556,0)" xlink:href="#I"/><use transform="matrix(0.00759548611111111,0,0,0.00759548611111111,75.31575520833333,3.398980034722222)" xlink:href="#L"/><use transform="matrix(0.010850694444444444,0,0,0.010850694444444444,81.56684027777777,0)" xlink:href="#J"/></g><g id="r"><use transform="matrix(0.009765624999999998,0,0,0.009765624999999998,0,0)" xlink:href="#B"/><use transform="matrix(0.009765624999999998,0,0,0.009765624999999998,8.779296874999998,0)" xlink:href="#C"/><use transform="matrix(0.009765624999999998,0,0,0.009765624999999998,16.640624999999996,0)" xlink:href="#D"/><use transform="matrix(0.009765624999999998,0,0,0.009765624999999998,22.783203124999996,0)" xlink:href="#E"/><use transform="matrix(0.010850694444444444,0,0,0.010850694444444444,28.681640624999996,0)" xlink:href="#F"/><use transform="matrix(0.00759548611111111,0,0,0.00759548611111111,38.43641493055555,3.398980034722222)" xlink:href="#L"/><use transform="matrix(0.010850694444444444,0,0,0.010850694444444444,44.68749999999999,0)" xlink:href="#H"/><use transform="matrix(0.010850694444444444,0,0,0.010850694444444444,49.136284722222214,0)" xlink:href="#I"/><use transform="matrix(0.00759548611111111,0,0,0.00759548611111111,59.04296874999999,3.398980034722222)" xlink:href="#L"/><use transform="matrix(0.009765624999999998,0,0,0.009765624999999998,65.29405381944444,0)" xlink:href="#J"/></g></defs></g></svg>